<svg xmlns="http://www.w3.org/2000/svg" xmlns:xlink="http://www.w3.org/1999/xlink" width="1440" zoomAndPan="magnify" viewBox="0 0 1080 1079.999946" height="1440" preserveAspectRatio="xMidYMid meet" version="1.0"><rect x="-108" width="1296" fill="#ffffff" y="-107.999995" height="1295.999935" fill-opacity="1"/><rect x="-108" width="1296" fill="#ffffff" y="-107.999995" height="1295.999935" fill-opacity="1"/><rect x="-108" width="1296" fill="#fffbe6" y="-107.999995" height="1295.999935" fill-opacity="1"/><path fill="#ff66c4" d="M 250.289062 61.640625 C 250.277344 64.902344 249.769531 68.136719 248.8125 71.464844 C 247.8125 74.765625 246.445312 78.132812 243.835938 81.449219 C 242.515625 83.085938 240.824219 84.75 238.523438 86.082031 C 236.246094 87.410156 233.25 88.316406 230.203125 88.25 C 227.152344 88.222656 224.25 87.265625 221.882812 85.921875 C 219.484375 84.5625 217.503906 82.832031 215.679688 80.863281 C 213.054688 77.933594 211.285156 74.726562 210.019531 70.917969 C 209.410156 69.015625 208.957031 66.964844 208.835938 64.675781 C 208.730469 62.398438 208.929688 59.84375 209.925781 57.125 C 210.699219 54.996094 211.992188 52.984375 213.601562 51.402344 C 215.214844 49.804688 217.128906 48.660156 219.035156 47.941406 C 222.90625 46.515625 226.6875 46.675781 230.097656 47.753906 C 232.773438 48.671875 234.007812 49.710938 235.21875 50.65625 C 236.378906 51.613281 237.335938 52.585938 238.242188 53.625 C 240.027344 55.703125 241.609375 57.976562 242.957031 60.601562 C 243.632812 61.917969 244.246094 63.316406 244.726562 64.96875 C 245.191406 66.632812 245.605469 68.535156 245.40625 71.15625 C 245.285156 72.449219 244.964844 73.941406 244.273438 75.496094 C 243.582031 77.054688 242.460938 78.652344 241.039062 79.890625 C 239.628906 81.128906 237.976562 81.992188 236.460938 82.484375 C 234.929688 82.992188 233.503906 83.179688 232.210938 83.203125 C 229.828125 83.269531 226.992188 82.9375 224.105469 81.355469 C 221.214844 79.824219 218.875 76.839844 217.957031 74.179688 C 216.96875 71.476562 216.941406 69.226562 217.074219 67.363281 C 217.234375 65.5 217.609375 63.957031 218.035156 62.53125 C 218.886719 59.722656 220.003906 57.394531 221.015625 55.4375 C 222.027344 53.492188 222.972656 51.960938 223.464844 51.148438 C 229.828125 40.992188 248.214844 52.453125 241.890625 62.636719 C 241.585938 63.128906 240.933594 64.207031 240.304688 65.433594 C 239.667969 66.644531 239.066406 68.054688 238.867188 68.800781 C 238.816406 68.988281 238.773438 69.121094 238.773438 69.171875 C 238.761719 69.199219 238.773438 69.1875 238.761719 69.199219 C 238.773438 69.1875 238.777344 69.148438 238.789062 69.082031 C 238.789062 68.828125 238.882812 68.027344 238.363281 66.566406 C 237.910156 65.128906 236.367188 63.144531 234.6875 62.292969 C 233.023438 61.386719 231.839844 61.414062 231.601562 61.414062 C 231.1875 61.425781 230.519531 61.480469 229.617188 61.773438 C 228.738281 62.066406 227.621094 62.625 226.621094 63.503906 C 225.621094 64.367188 224.824219 65.511719 224.359375 66.550781 C 223.894531 67.601562 223.71875 68.523438 223.652344 69.199219 C 223.558594 70.558594 223.757812 71.023438 223.773438 71.117188 C 223.757812 71.105469 223.746094 71.0625 223.71875 71.011719 C 223.679688 70.917969 223.613281 70.757812 223.519531 70.570312 C 223.132812 69.828125 222.335938 68.679688 221.75 68.027344 C 221.601562 67.871094 221.484375 67.734375 221.390625 67.644531 C 221.351562 67.601562 221.308594 67.578125 221.296875 67.550781 C 221.28125 67.550781 221.269531 67.535156 221.269531 67.535156 C 221.269531 67.535156 221.269531 67.535156 221.28125 67.550781 C 221.390625 67.578125 221.601562 67.976562 223.425781 68.628906 C 224.226562 68.867188 225.25 69.015625 226.753906 68.480469 C 227.488281 68.203125 228.3125 67.722656 229.019531 67.03125 C 229.722656 66.339844 230.269531 65.460938 230.535156 64.699219 C 230.816406 63.929688 230.773438 63.542969 230.789062 63.53125 C 230.789062 63.53125 230.789062 63.53125 230.789062 63.554688 C 230.800781 63.582031 230.800781 63.636719 230.816406 63.6875 C 230.839844 63.796875 230.878906 63.96875 230.945312 64.15625 C 231.148438 64.902344 231.867188 65.992188 231.890625 65.9375 C 232.210938 66.285156 232.464844 66.511719 232.609375 66.617188 C 232.679688 66.683594 232.71875 66.710938 232.730469 66.722656 C 232.730469 66.710938 232.746094 66.722656 232.730469 66.710938 C 232.730469 66.710938 232.707031 66.699219 232.679688 66.683594 C 232.507812 66.566406 231.667969 66.191406 230.523438 66.179688 C 229.378906 66.140625 228.152344 66.539062 227.488281 66.9375 C 226.792969 67.335938 226.566406 67.644531 226.554688 67.65625 C 226.566406 67.644531 226.59375 67.589844 226.660156 67.484375 C 226.726562 67.363281 226.820312 67.191406 226.925781 66.976562 C 227.128906 66.539062 227.355469 65.9375 227.539062 65.273438 C 227.9375 63.96875 228.125 62.382812 228.113281 61.640625 C 227.9375 55.515625 232.957031 50.550781 239.082031 50.550781 C 245.21875 50.550781 250.332031 55.515625 250.289062 61.640625 Z M 250.289062 61.640625 " fill-opacity="1" fill-rule="nonzero"/><path fill="#ff66c4" d="M 135.167969 56.820312 C 135.421875 57.578125 135.886719 58.898438 136.324219 60.519531 C 136.761719 62.15625 137.203125 64.089844 137.308594 66.589844 C 137.351562 67.84375 137.296875 69.265625 136.9375 70.929688 C 136.578125 72.582031 135.886719 74.539062 134.488281 76.441406 C 133.117188 78.34375 130.988281 80.050781 128.753906 80.953125 C 126.5 81.898438 124.304688 82.152344 122.390625 82.101562 C 120.324219 82.058594 118.210938 81.582031 116.316406 80.714844 C 114.425781 79.863281 112.816406 78.636719 111.550781 77.308594 C 109.007812 74.605469 107.796875 71.621094 107.199219 68.8125 C 106.625 65.980469 106.667969 63.195312 107.332031 60.335938 C 108.039062 57.511719 109.410156 54.449219 112.242188 51.816406 C 115.398438 48.914062 119.417969 47.542969 123.011719 47.433594 C 126.632812 47.328125 129.976562 48.246094 132.957031 50.085938 C 135.886719 51.921875 138.679688 54.902344 139.917969 59.191406 C 140.53125 61.292969 140.679688 63.648438 140.292969 65.871094 C 139.917969 68.121094 139.066406 70.199219 137.949219 71.96875 C 136.738281 73.847656 135.179688 75.894531 132.1875 77.558594 C 130.710938 78.371094 128.84375 78.972656 126.925781 79.089844 C 125.023438 79.222656 123.132812 78.878906 121.628906 78.304688 C 118.566406 77.121094 116.902344 75.429688 115.691406 74.058594 C 114.492188 72.648438 113.710938 71.355469 113.042969 70.117188 C 111.726562 67.667969 110.886719 65.378906 110.234375 63.394531 C 109.582031 61.4375 109.140625 59.816406 108.957031 59.070312 C 105.921875 47.476562 126.871094 41.949219 129.9375 53.546875 C 130.082031 54.078125 130.402344 55.234375 130.828125 56.515625 C 131.253906 57.777344 131.828125 59.175781 132.171875 59.789062 C 132.253906 59.949219 132.316406 60.042969 132.332031 60.054688 C 132.332031 60.054688 132.332031 60.054688 132.316406 60.027344 C 132.292969 60 132.253906 59.949219 132.1875 59.867188 C 131.90625 59.589844 131.242188 58.710938 129.203125 57.898438 C 128.21875 57.527344 126.863281 57.257812 125.476562 57.367188 C 124.105469 57.445312 122.789062 57.886719 121.855469 58.390625 C 119.964844 59.46875 119.539062 60.375 119.472656 60.402344 C 119.261719 60.734375 118.9375 61.398438 118.792969 62.304688 C 118.632812 63.183594 118.6875 64.261719 118.964844 65.191406 C 119.523438 67.125 120.644531 68.136719 121.402344 68.613281 C 122.214844 69.09375 122.882812 69.28125 123.824219 69.265625 C 124.730469 69.265625 126.0625 68.828125 127.007812 67.9375 C 128.21875 66.804688 128.484375 65.886719 128.605469 65.445312 C 128.710938 64.953125 128.710938 64.78125 128.644531 64.367188 C 128.550781 63.980469 128.378906 63.25 127.417969 62.199219 C 126.941406 61.691406 126.234375 61.148438 125.410156 60.773438 C 124.585938 60.386719 123.652344 60.1875 122.921875 60.175781 C 122.480469 60.175781 121.496094 60.214844 120.230469 60.734375 C 118.980469 61.238281 117.59375 62.316406 116.785156 63.460938 C 115.945312 64.609375 115.625 65.644531 115.480469 66.285156 C 115.347656 66.9375 115.359375 67.242188 115.359375 67.351562 C 115.359375 67.390625 115.359375 67.390625 115.359375 67.351562 C 115.34375 67.308594 115.347656 67.230469 115.320312 67.125 C 115.28125 66.925781 115.214844 66.617188 115.121094 66.273438 C 114.933594 65.59375 114.667969 64.820312 114.402344 64.089844 C 112.378906 58.363281 115.425781 52.082031 121.164062 50.070312 C 126.886719 48.074219 133.183594 51.082031 135.167969 56.820312 Z M 135.167969 56.820312 " fill-opacity="1" fill-rule="nonzero"/><path fill="#ff66c4" d="M 238.070312 165.0625 C 238.152344 165.484375 238.390625 166.523438 238.644531 167.828125 C 238.882812 169.148438 239.148438 170.757812 239.203125 172.753906 C 239.214844 174.738281 239.082031 177.214844 237.832031 180.15625 C 237.203125 181.609375 236.261719 183.136719 234.96875 184.484375 C 233.691406 185.828125 232.09375 186.957031 230.429688 187.703125 C 227.632812 189.035156 223.933594 189.488281 220.777344 188.664062 C 217.597656 187.863281 215.214844 186.132812 213.574219 184.417969 C 211.910156 182.65625 210.859375 180.847656 210.074219 179.039062 C 209.316406 177.203125 208.835938 175.339844 208.675781 173.273438 C 208.34375 169.09375 209.394531 164.796875 211.847656 161.214844 C 214.253906 157.644531 218.144531 154.917969 222.484375 153.867188 C 227.046875 152.691406 231.695312 153.480469 235.261719 155.277344 C 238.871094 157.085938 241.636719 159.789062 243.582031 163.035156 C 245.5 166.296875 246.671875 170.292969 246.164062 174.738281 C 245.710938 179.171875 243.117188 183.789062 239.320312 186.625 C 237.855469 187.746094 236.195312 188.796875 233.984375 189.5 C 231.8125 190.21875 228.9375 190.460938 226.210938 189.660156 C 223.480469 188.890625 221.285156 187.222656 219.925781 185.640625 C 218.527344 184.03125 217.769531 182.511719 217.222656 181.15625 C 216.171875 178.425781 215.90625 176.175781 215.773438 174.058594 C 215.679688 171.941406 215.773438 170.078125 216.183594 167.988281 C 217.328125 162.144531 223.015625 158.363281 228.84375 159.546875 C 234.6875 160.734375 238.496094 166.433594 237.324219 172.273438 C 237.324219 172.234375 237.339844 172.207031 237.339844 172.195312 C 237.339844 172.183594 237.339844 172.183594 237.339844 172.195312 C 237.339844 172.207031 237.324219 172.273438 237.324219 172.355469 C 237.3125 172.515625 237.3125 172.753906 237.324219 172.96875 C 237.339844 173.179688 237.363281 173.382812 237.378906 173.449219 C 237.378906 173.472656 237.390625 173.472656 237.390625 173.472656 C 237.390625 173.472656 237.390625 173.472656 237.378906 173.449219 C 237.363281 173.40625 237.339844 173.3125 237.285156 173.152344 C 237.152344 172.847656 236.914062 172.261719 236.152344 171.382812 C 235.433594 170.53125 234.011719 169.386719 232.160156 168.882812 C 230.324219 168.335938 228.457031 168.550781 227.460938 168.894531 C 226.941406 169.054688 226.582031 169.242188 226.371094 169.359375 C 226.144531 169.480469 226.0625 169.546875 226.0625 169.546875 C 225.625 169.773438 224.707031 171.144531 224.652344 172.222656 C 224.546875 173.3125 224.8125 173.859375 224.945312 174.101562 C 225.105469 174.351562 225.199219 174.484375 225.625 174.722656 C 226.023438 174.953125 226.996094 175.148438 227.78125 174.925781 C 228.378906 174.816406 229.324219 174.21875 229.804688 173.488281 C 230.308594 172.753906 230.417969 172.007812 230.375 171.609375 C 230.335938 171.0625 230.257812 170.851562 230.148438 170.558594 C 230.015625 170.277344 229.855469 169.933594 229.3125 169.347656 C 228.792969 168.789062 227.726562 167.921875 226.035156 167.496094 C 224.371094 167.03125 222.347656 167.363281 221.351562 167.867188 C 220.644531 168.1875 219.820312 168.734375 219.179688 169.425781 C 218.527344 170.105469 218.0625 170.878906 217.796875 171.476562 C 217.53125 172.101562 217.4375 172.554688 217.398438 172.835938 C 217.371094 172.96875 217.371094 173.0625 217.371094 173.113281 C 217.359375 173.179688 217.355469 173.167969 217.355469 173.179688 C 217.355469 173.128906 217.316406 172.609375 217.171875 171.917969 C 217.039062 171.210938 216.839844 170.371094 216.613281 169.265625 C 215.425781 163.34375 219.367188 157.578125 225.289062 156.421875 C 231.226562 155.261719 237.007812 159.121094 238.070312 165.0625 Z M 238.070312 165.0625 " fill-opacity="1" fill-rule="nonzero"/><path fill="#ff66c4" d="M 137.28125 150.113281 C 139.265625 152.933594 140.300781 155.902344 140.792969 158.898438 C 141.246094 161.890625 141.15625 164.992188 140.222656 168.203125 C 139.304688 171.355469 137.386719 174.804688 133.980469 177.347656 C 130.625 179.929688 126.03125 181.035156 121.957031 180.636719 C 120.066406 180.476562 117.953125 180.011719 115.824219 178.839844 C 113.691406 177.707031 111.707031 175.75 110.550781 173.632812 C 109.367188 171.515625 108.925781 169.429688 108.792969 167.695312 C 108.6875 165.964844 108.84375 164.53125 109.085938 163.277344 C 109.589844 160.789062 110.375 158.9375 111.121094 157.355469 C 111.878906 155.753906 112.636719 154.503906 113.304688 153.480469 C 116.605469 148.449219 123.371094 147.0625 128.402344 150.363281 C 133.433594 153.667969 134.832031 160.414062 131.515625 165.433594 C 131.371094 165.644531 131.023438 166.230469 130.796875 166.722656 C 130.679688 166.980469 130.582031 167.214844 130.542969 167.351562 C 130.515625 167.429688 130.503906 167.484375 130.492188 167.496094 C 130.503906 167.484375 130.507812 167.484375 130.519531 167.402344 C 130.542969 167.257812 130.625 166.882812 130.570312 166.152344 C 130.519531 165.417969 130.316406 164.234375 129.574219 162.917969 C 128.867188 161.585938 127.535156 160.320312 126.335938 159.683594 C 125.125 159.03125 124.179688 158.898438 123.78125 158.855469 C 123.527344 158.765625 121.945312 158.964844 120.855469 159.84375 C 119.707031 160.695312 119.308594 161.664062 119.203125 162.011719 C 119.097656 162.414062 119.148438 162.359375 119.121094 162.34375 C 119.136719 162.359375 119.121094 162.34375 119.148438 162.414062 C 119.175781 162.492188 119.230469 162.636719 119.402344 162.875 C 112.453125 152.917969 130.292969 140.195312 137.28125 150.113281 Z M 137.28125 150.113281 " fill-opacity="1" fill-rule="nonzero"/><path fill="#ff66c4" d="M 182.785156 110.679688 C 184.195312 112.066406 185.605469 113.4375 187.03125 114.820312 C 187.351562 115.125 187.496094 115.285156 187.710938 115.539062 C 188.574219 116.550781 189.226562 117.480469 189.984375 118.734375 C 190.71875 119.984375 191.476562 121.425781 192.128906 123.472656 C 192.433594 124.511719 192.726562 125.722656 192.808594 127.292969 C 192.875 128.835938 192.742188 130.847656 191.796875 133.085938 C 190.890625 135.308594 188.972656 137.558594 186.84375 138.824219 C 184.699219 140.140625 182.609375 140.605469 180.878906 140.765625 C 176.980469 141.113281 173.664062 139.847656 171.335938 138.371094 C 168.96875 136.839844 167.300781 135.039062 165.957031 133.125 C 164.628906 131.179688 163.628906 129.078125 163.015625 126.628906 C 162.445312 124.207031 162.148438 121.289062 163.242188 117.84375 C 164.1875 114.847656 166.261719 112.089844 168.820312 110.398438 C 171.375 108.683594 174.25 107.9375 177.019531 107.992188 C 179.800781 108.046875 182.570312 108.882812 185.007812 110.585938 C 187.441406 112.265625 189.453125 114.925781 190.398438 117.921875 C 191.328125 120.878906 191.210938 123.433594 190.746094 125.695312 C 190.253906 127.960938 189.359375 130.023438 187.921875 132.007812 C 186.472656 133.9375 184.367188 135.933594 181.171875 137.105469 C 179.589844 137.679688 177.765625 137.984375 175.941406 137.890625 C 174.105469 137.808594 172.304688 137.347656 170.761719 136.625 C 168.671875 135.691406 166.515625 134.015625 165.066406 131.871094 C 163.589844 129.742188 162.921875 127.371094 162.734375 125.445312 C 162.402344 121.515625 163.308594 118.988281 164.066406 116.871094 C 164.894531 114.765625 165.8125 113.105469 166.582031 111.734375 C 167.355469 110.398438 168.046875 109.296875 168.140625 109.125 C 170.910156 103.851562 177.511719 102.027344 182.71875 104.941406 C 187.910156 107.859375 189.890625 114.5 186.949219 119.679688 C 186.335938 120.757812 185.820312 121.554688 185.3125 122.460938 C 184.820312 123.328125 184.394531 124.191406 184.234375 124.617188 C 184.195312 124.726562 184.179688 124.792969 184.167969 124.816406 C 184.167969 124.832031 184.167969 124.804688 184.167969 124.816406 C 184.179688 124.804688 184.179688 124.777344 184.195312 124.726562 C 184.222656 124.550781 184.328125 124.085938 184.234375 123.195312 C 184.15625 122.3125 183.808594 120.929688 182.902344 119.640625 C 182.039062 118.324219 180.707031 117.351562 179.777344 116.949219 C 179.03125 116.601562 178.003906 116.3125 176.925781 116.269531 C 175.832031 116.207031 174.730469 116.40625 173.824219 116.738281 C 171.960938 117.414062 171.015625 118.429688 170.484375 119.132812 C 169.949219 119.894531 169.710938 120.453125 169.539062 121.210938 C 169.390625 121.957031 169.269531 122.964844 169.765625 124.605469 C 170.191406 126.015625 171.269531 127.492188 172.5625 128.359375 C 173.851562 129.261719 175.25 129.679688 176.644531 129.703125 C 178.042969 129.730469 179.5625 129.359375 180.960938 128.425781 C 182.359375 127.519531 183.488281 125.949219 183.914062 124.566406 C 184.445312 122.78125 184.207031 121.835938 184.128906 121.394531 C 184.007812 120.957031 183.957031 120.890625 183.875 120.742188 C 183.78125 120.625 183.648438 120.398438 182.996094 119.960938 C 182.371094 119.546875 180.921875 118.867188 178.894531 119.050781 C 178.207031 119.121094 176.925781 119.332031 175.394531 120.265625 C 173.867188 121.144531 172.375 122.902344 171.722656 124.539062 C 171.03125 126.1875 170.976562 127.519531 171.003906 128.34375 C 171.054688 129.199219 171.191406 129.625 171.253906 129.875 C 171.414062 130.34375 171.363281 130.128906 171.226562 129.945312 C 171.175781 129.851562 171.109375 129.742188 171.070312 129.703125 C 171.054688 129.691406 171.054688 129.679688 171.042969 129.664062 C 171.042969 129.664062 171.042969 129.664062 171.042969 129.679688 C 171.054688 129.679688 171.082031 129.714844 171.160156 129.808594 C 171.386719 130.050781 171.613281 130.289062 171.84375 130.527344 C 170.417969 129.15625 168.992188 127.785156 167.570312 126.417969 C 163.214844 122.222656 163.109375 115.285156 167.316406 110.945312 C 171.507812 106.59375 178.445312 106.472656 182.785156 110.679688 Z M 182.785156 110.679688 " fill-opacity="1" fill-rule="nonzero"/><path fill="#ff66c4" d="M 185.515625 3.570312 C 187.433594 6.886719 189.351562 10.1875 191.265625 13.5 C 184.464844 15.804688 177.664062 18.09375 170.871094 20.398438 C 170.378906 16.84375 169.890625 13.289062 169.398438 9.71875 C 168.554688 3.691406 172.828125 -1.859375 178.859375 -2.660156 C 184.890625 -3.472656 190.46875 0.773438 191.238281 6.804688 C 191.707031 10.371094 192.160156 13.925781 192.613281 17.496094 C 192.957031 20.210938 192.320312 22.78125 190.976562 24.871094 C 189.644531 26.960938 187.566406 28.570312 185.195312 29.355469 C 182.839844 30.140625 180.21875 30.101562 177.890625 29.210938 C 175.558594 28.34375 173.507812 26.667969 172.21875 24.390625 C 170.339844 21.0625 168.449219 17.722656 166.574219 14.394531 C 160.648438 3.902344 179.484375 -6.867188 185.515625 3.570312 Z M 185.515625 3.570312 " fill-opacity="1" fill-rule="nonzero"/><path fill="#ff66c4" d="M 284.828125 140.355469 C 284.574219 137.984375 284.320312 135.617188 284.054688 133.246094 C 283.402344 127.226562 287.847656 121.863281 293.867188 121.265625 C 299.882812 120.667969 305.300781 125.042969 305.847656 131.0625 C 306.058594 133.445312 306.273438 135.8125 306.5 138.183594 C 307.589844 150.164062 286.144531 152.308594 284.828125 140.355469 Z M 284.828125 140.355469 " fill-opacity="1" fill-rule="nonzero"/><path fill="#ff66c4" d="M 239.175781 253.824219 C 242.25 253.292969 245.335938 252.773438 248.414062 252.242188 C 254.429688 251.214844 260.085938 255.449219 261.003906 261.480469 C 261.9375 267.507812 257.8125 273.261719 251.769531 274.085938 C 248.679688 274.5 245.578125 274.925781 242.488281 275.351562 C 236.617188 276.148438 231.265625 271.96875 230.375 266.191406 C 229.484375 260.417969 233.332031 254.824219 239.175781 253.824219 Z M 239.175781 253.824219 " fill-opacity="1" fill-rule="nonzero"/><path fill="#ff66c4" d="M 152.949219 252.214844 C 154.347656 252.535156 155.761719 252.855469 157.171875 253.171875 C 162.871094 254.464844 166.503906 259.949219 165.570312 265.566406 C 164.628906 271.1875 159.421875 275.191406 153.617188 274.566406 C 152.179688 274.40625 150.726562 274.257812 149.304688 274.101562 C 143.207031 273.449219 139.175781 267.378906 140.183594 261.335938 C 141.183594 255.289062 146.972656 250.871094 152.949219 252.214844 Z M 152.949219 252.214844 " fill-opacity="1" fill-rule="nonzero"/><path fill="#ff66c4" d="M 48 155.304688 C 46.578125 154.835938 45.152344 154.359375 43.726562 153.878906 C 38.308594 152.082031 36.164062 145.585938 37.871094 140.449219 C 39.585938 135.308594 45.207031 131.40625 50.621094 133.21875 C 52.046875 133.683594 53.472656 134.164062 54.882812 134.628906 C 60.300781 136.441406 62.457031 142.9375 60.753906 148.074219 C 59.035156 153.214844 53.417969 157.113281 48 155.304688 Z M 48 155.304688 " fill-opacity="1" fill-rule="nonzero"/><path fill="#ff66c4" d="M 83.820312 202.707031 C 84.980469 204.386719 86.136719 206.0625 87.296875 207.738281 C 94.097656 217.578125 76.804688 229.929688 69.699219 220.320312 C 68.484375 218.683594 67.273438 217.03125 66.050781 215.394531 C 62.46875 210.546875 63.695312 203.667969 68.59375 200.164062 C 73.503906 196.664062 80.402344 197.742188 83.820312 202.707031 Z M 83.820312 202.707031 " fill-opacity="1" fill-rule="nonzero"/><path fill="#ff66c4" d="M 45.394531 41.738281 C 46.816406 41.496094 48.242188 41.257812 49.664062 41.019531 C 55.484375 40.058594 60.875 44.226562 61.832031 49.964844 C 62.792969 55.703125 59.039062 61.398438 53.222656 62.371094 C 51.796875 62.609375 50.386719 62.851562 48.960938 63.089844 C 43.144531 64.0625 37.75 59.882812 36.792969 54.144531 C 35.835938 48.40625 39.578125 42.710938 45.394531 41.738281 Z M 45.394531 41.738281 " fill-opacity="1" fill-rule="nonzero"/><path fill="#ff66c4" d="M 299.757812 22.726562 C 296.894531 24.363281 294.046875 26.015625 291.183594 27.652344 C 286.683594 30.234375 280.960938 26.164062 278.710938 22.300781 C 276.460938 18.453125 275.730469 11.453125 280.1875 8.816406 C 283.039062 7.140625 285.875 5.460938 288.710938 3.785156 C 293.929688 0.695312 300.648438 2.492188 303.710938 7.726562 C 306.761719 12.957031 305.015625 19.707031 299.757812 22.726562 Z M 299.757812 22.726562 " fill-opacity="1" fill-rule="nonzero"/><path fill="#ff66c4" d="M 344.402344 75.65625 C 347.476562 78.519531 350.550781 81.382812 353.613281 84.242188 C 362.453125 92.484375 347.703125 108.472656 338.785156 100.324219 C 335.695312 97.488281 332.59375 94.652344 329.492188 91.816406 C 325.007812 87.71875 324.753906 80.742188 328.867188 76.28125 C 332.996094 71.824219 339.96875 71.515625 344.402344 75.65625 Z M 344.402344 75.65625 " fill-opacity="1" fill-rule="nonzero"/><path fill="#ff66c4" d="M 315.109375 210.015625 C 316.28125 210.988281 317.464844 211.945312 318.636719 212.90625 C 323.777344 217.097656 316.363281 226.375 311.128906 222.289062 C 309.933594 221.34375 308.734375 220.414062 307.550781 219.464844 C 304.914062 217.402344 304.511719 213.570312 306.605469 210.960938 C 308.695312 208.351562 312.515625 207.898438 315.109375 210.015625 Z M 315.109375 210.015625 " fill-opacity="1" fill-rule="nonzero"/><path fill="#ff66c4" d="M 189.375 212.570312 C 190.09375 213.527344 190.800781 214.476562 191.519531 215.421875 C 193.5 218.070312 192.96875 221.824219 190.320312 223.804688 C 187.671875 225.792969 183.917969 225.257812 181.933594 222.609375 C 181.214844 221.664062 180.507812 220.71875 179.789062 219.761719 C 177.808594 217.109375 178.355469 213.355469 181.003906 211.375 C 183.636719 209.390625 187.390625 209.921875 189.375 212.570312 Z M 189.375 212.570312 " fill-opacity="1" fill-rule="nonzero"/><path fill="#ff66c4" d="M 22.753906 203.371094 C 22.039062 204.105469 21.316406 204.824219 20.585938 205.542969 C 15.886719 210.257812 7.355469 201.734375 12.066406 197.023438 C 12.785156 196.304688 13.515625 195.574219 14.234375 194.855469 C 18.945312 190.140625 27.46875 198.675781 22.753906 203.371094 Z M 22.753906 203.371094 " fill-opacity="1" fill-rule="nonzero"/><path fill="#ff66c4" d="M 90.996094 120.410156 C 89.917969 120.410156 88.828125 120.410156 87.734375 120.410156 C 84.421875 120.410156 81.71875 117.722656 81.71875 114.394531 C 81.71875 111.082031 84.421875 108.378906 87.734375 108.378906 C 88.828125 108.378906 89.917969 108.378906 90.996094 108.378906 C 94.324219 108.378906 97.015625 111.082031 97.015625 114.394531 C 97.015625 117.722656 94.324219 120.410156 90.996094 120.410156 Z M 90.996094 120.410156 " fill-opacity="1" fill-rule="nonzero"/><path fill="#ff66c4" d="M 26.683594 90.84375 C 28.109375 91.699219 29.53125 92.550781 30.957031 93.386719 C 33.421875 94.851562 33.085938 98.6875 31.890625 100.828125 C 30.675781 102.972656 27.574219 105.25 25.046875 103.90625 C 23.582031 103.121094 22.105469 102.347656 20.640625 101.5625 C 17.644531 99.976562 16.632812 96.144531 18.296875 93.1875 C 19.960938 90.21875 23.753906 89.101562 26.683594 90.84375 Z M 26.683594 90.84375 " fill-opacity="1" fill-rule="nonzero"/><path fill="#ff66c4" d="M 81.082031 22.394531 C 80.082031 21.304688 79.097656 20.210938 78.101562 19.121094 C 73.585938 14.152344 82.503906 5.980469 87.070312 10.917969 C 88.070312 11.996094 89.070312 13.078125 90.066406 14.15625 C 92.355469 16.628906 92.171875 20.492188 89.695312 22.765625 C 87.203125 25.042969 83.34375 24.882812 81.082031 22.394531 Z M 81.082031 22.394531 " fill-opacity="1" fill-rule="nonzero"/><path fill="#ff66c4" d="M 353.835938 35.492188 C 352.027344 35.464844 350.214844 35.453125 348.40625 35.425781 C 345.089844 35.386719 342.386719 32.738281 342.386719 29.410156 C 342.386719 26.082031 345.089844 23.433594 348.40625 23.390625 C 350.214844 23.367188 352.027344 23.351562 353.835938 23.324219 C 357.203125 23.285156 359.917969 26.054688 359.917969 29.410156 C 359.917969 32.765625 357.203125 35.53125 353.835938 35.492188 Z M 353.835938 35.492188 " fill-opacity="1" fill-rule="nonzero"/><path fill="#ff66c4" d="M 360.144531 159.152344 C 360.597656 160.136719 361.0625 161.132812 361.515625 162.121094 C 362.9375 165.15625 361.566406 168.75 358.519531 170.148438 C 355.472656 171.53125 351.863281 170.199219 350.507812 167.136719 C 350.054688 166.140625 349.613281 165.140625 349.160156 164.144531 C 346.472656 158.046875 357.335938 153.121094 360.144531 159.152344 Z M 360.144531 159.152344 " fill-opacity="1" fill-rule="nonzero"/><path fill="#ff66c4" d="M 234.261719 112.734375 C 234.699219 114.636719 235.140625 116.539062 235.578125 118.441406 C 237.070312 124.882812 225.5 127.640625 223.917969 121.210938 C 223.453125 119.320312 222.984375 117.417969 222.519531 115.527344 C 221.734375 112.292969 223.757812 109.03125 226.992188 108.257812 C 230.238281 107.488281 233.5 109.484375 234.261719 112.734375 Z M 234.261719 112.734375 " fill-opacity="1" fill-rule="nonzero"/><path fill="#ff66c4" d="M 287.195312 73.40625 C 287.832031 74.296875 288.460938 75.203125 289.097656 76.109375 C 291.054688 78.890625 290.375 82.738281 287.59375 84.683594 C 284.8125 86.636719 280.964844 85.960938 279.019531 83.175781 C 278.382812 82.273438 277.742188 81.355469 277.117188 80.449219 C 273.230469 74.882812 283.292969 67.839844 287.195312 73.40625 Z M 287.195312 73.40625 " fill-opacity="1" fill-rule="nonzero"/><path fill="#ff66c4" d="M 181.355469 63.726562 C 181.167969 64.621094 180.996094 65.527344 180.808594 66.429688 C 180.15625 69.707031 176.992188 71.820312 173.714844 71.167969 C 170.457031 70.515625 168.324219 67.335938 168.976562 64.074219 C 169.164062 63.167969 169.347656 62.25 169.523438 61.34375 C 170.1875 58.082031 173.355469 55.96875 176.628906 56.621094 C 179.890625 57.273438 182.007812 60.453125 181.355469 63.726562 Z M 181.355469 63.726562 " fill-opacity="1" fill-rule="nonzero"/><path fill="#ff66c4" d="M 261.980469 216.617188 C 263.046875 217.589844 264.109375 218.574219 265.1875 219.546875 C 270.089844 224.03125 262.21875 232.871094 257.203125 228.53125 C 256.097656 227.585938 255.003906 226.640625 253.914062 225.695312 C 251.371094 223.5 251.183594 219.625 253.40625 217.125 C 255.644531 214.609375 259.503906 214.355469 261.980469 216.617188 Z M 261.980469 216.617188 " fill-opacity="1" fill-rule="nonzero"/><path fill="#ff66c4" d="M 101.601562 252.855469 C 102.054688 254.785156 102.523438 256.714844 102.972656 258.632812 C 104.507812 265.074219 93.03125 267.9375 91.355469 261.546875 C 90.847656 259.628906 90.34375 257.714844 89.851562 255.796875 C 88.996094 252.550781 91.007812 249.246094 94.253906 248.449219 C 97.503906 247.636719 100.832031 249.59375 101.601562 252.855469 Z M 101.601562 252.855469 " fill-opacity="1" fill-rule="nonzero"/><path fill="#ff66c4" d="M 19.605469 8.375 C 19.113281 7.296875 18.636719 6.21875 18.15625 5.128906 C 16.808594 2.105469 18.183594 -1.433594 21.203125 -2.765625 C 24.226562 -4.109375 27.765625 -2.753906 29.109375 0.269531 C 29.589844 1.347656 30.066406 2.441406 30.546875 3.519531 C 31.894531 6.539062 30.535156 10.082031 27.515625 11.425781 C 24.492188 12.769531 20.949219 11.398438 19.605469 8.375 Z M 19.605469 8.375 " fill-opacity="1" fill-rule="nonzero"/><path fill="#ff66c4" d="M -4.53125 142.417969 C -6.328125 142.296875 -8.140625 142.175781 -9.9375 142.058594 C -13.226562 141.84375 -15.703125 138.96875 -15.488281 135.683594 C -15.261719 132.394531 -12.425781 129.890625 -9.136719 130.101562 C -7.339844 130.222656 -5.53125 130.34375 -3.734375 130.464844 C -0.433594 130.691406 2.042969 133.554688 1.816406 136.839844 C 1.605469 140.128906 -1.230469 142.644531 -4.53125 142.417969 Z M -4.53125 142.417969 " fill-opacity="1" fill-rule="nonzero"/><path fill="#ff66c4" d="M 330.324219 279.011719 C 328.527344 278.292969 326.730469 277.558594 324.933594 276.828125 C 322.097656 275.671875 321.328125 271.984375 322.390625 269.347656 C 323.445312 266.710938 326.53125 264.582031 329.382812 265.699219 C 331.191406 266.417969 333.003906 267.125 334.800781 267.828125 C 337.902344 269.054688 339.390625 272.566406 338.152344 275.65625 C 336.929688 278.746094 333.414062 280.261719 330.324219 279.011719 Z M 330.324219 279.011719 " fill-opacity="1" fill-rule="nonzero"/><path fill="#ff66c4" d="M 373.242188 216.871094 C 373.109375 217.828125 372.960938 218.789062 372.828125 219.746094 C 371.882812 226.375 360.085938 224.914062 360.792969 218.242188 C 360.886719 217.28125 360.992188 216.3125 361.101562 215.355469 C 361.460938 211.984375 364.574219 209.613281 367.929688 210.042969 C 371.285156 210.457031 373.71875 213.527344 373.242188 216.871094 Z M 373.242188 216.871094 " fill-opacity="1" fill-rule="nonzero"/><path fill="#ff66c4" d="M 581.820312 196.777344 C 581.804688 193.515625 581.300781 190.28125 580.34375 186.953125 C 579.34375 183.652344 577.972656 180.285156 575.363281 176.96875 C 574.046875 175.332031 572.355469 173.667969 570.050781 172.335938 C 567.777344 171.003906 564.78125 170.101562 561.730469 170.167969 C 558.683594 170.195312 555.78125 171.152344 553.410156 172.496094 C 551.015625 173.855469 549.03125 175.585938 547.207031 177.554688 C 544.585938 180.484375 542.816406 183.691406 541.550781 187.5 C 540.9375 189.402344 540.484375 191.453125 540.367188 193.742188 C 540.261719 196.019531 540.457031 198.574219 541.457031 201.289062 C 542.230469 203.421875 543.519531 205.429688 545.132812 207.015625 C 546.742188 208.613281 548.660156 209.757812 550.5625 210.476562 C 554.4375 211.902344 558.21875 211.742188 561.625 210.664062 C 564.300781 209.742188 565.539062 208.707031 566.75 207.761719 C 567.910156 206.800781 568.867188 205.832031 569.773438 204.792969 C 571.554688 202.714844 573.140625 200.4375 574.484375 197.816406 C 575.164062 196.5 575.777344 195.101562 576.253906 193.449219 C 576.722656 191.785156 577.132812 189.882812 576.933594 187.261719 C 576.816406 185.96875 576.496094 184.476562 575.804688 182.921875 C 575.109375 181.363281 573.992188 179.765625 572.566406 178.527344 C 571.15625 177.289062 569.507812 176.421875 567.988281 175.929688 C 566.457031 175.425781 565.03125 175.238281 563.742188 175.210938 C 561.359375 175.144531 558.523438 175.480469 555.636719 177.0625 C 552.746094 178.59375 550.402344 181.574219 549.484375 184.238281 C 548.5 186.941406 548.472656 189.191406 548.605469 191.054688 C 548.765625 192.917969 549.140625 194.460938 549.566406 195.886719 C 550.417969 198.695312 551.535156 201.023438 552.546875 202.980469 C 553.558594 204.925781 554.503906 206.457031 554.996094 207.269531 C 561.359375 217.425781 579.742188 205.964844 573.421875 195.78125 C 573.113281 195.285156 572.460938 194.207031 571.835938 192.984375 C 571.195312 191.773438 570.597656 190.363281 570.398438 189.617188 C 570.34375 189.429688 570.304688 189.296875 570.304688 189.242188 C 570.292969 189.214844 570.304688 189.230469 570.292969 189.214844 C 570.304688 189.230469 570.304688 189.269531 570.320312 189.335938 C 570.320312 189.589844 570.410156 190.386719 569.890625 191.851562 C 569.441406 193.289062 567.894531 195.273438 566.21875 196.125 C 564.554688 197.03125 563.371094 197.003906 563.128906 197.003906 C 562.71875 196.992188 562.050781 196.9375 561.144531 196.644531 C 560.265625 196.351562 559.148438 195.792969 558.152344 194.914062 C 557.152344 194.050781 556.355469 192.902344 555.886719 191.867188 C 555.421875 190.8125 555.25 189.894531 555.183594 189.214844 C 555.089844 187.859375 555.289062 187.394531 555.300781 187.300781 C 555.289062 187.3125 555.277344 187.351562 555.25 187.40625 C 555.207031 187.5 555.140625 187.660156 555.046875 187.84375 C 554.664062 188.589844 553.863281 189.734375 553.277344 190.386719 C 553.132812 190.546875 553.011719 190.679688 552.917969 190.773438 C 552.878906 190.8125 552.839844 190.839844 552.824219 190.867188 C 552.8125 190.867188 552.800781 190.878906 552.800781 190.878906 C 552.800781 190.878906 552.800781 190.878906 552.8125 190.867188 C 552.917969 190.839844 553.132812 190.441406 554.957031 189.789062 C 555.753906 189.550781 556.78125 189.402344 558.285156 189.9375 C 559.015625 190.214844 559.84375 190.695312 560.546875 191.386719 C 561.253906 192.078125 561.796875 192.957031 562.066406 193.714844 C 562.34375 194.488281 562.304688 194.875 562.316406 194.886719 C 562.316406 194.886719 562.316406 194.886719 562.316406 194.859375 C 562.332031 194.835938 562.332031 194.78125 562.34375 194.726562 C 562.371094 194.621094 562.410156 194.449219 562.476562 194.261719 C 562.675781 193.515625 563.394531 192.425781 563.421875 192.476562 C 563.742188 192.132812 563.996094 191.90625 564.140625 191.800781 C 564.207031 191.734375 564.246094 191.707031 564.261719 191.691406 C 564.261719 191.707031 564.273438 191.691406 564.261719 191.707031 C 564.261719 191.707031 564.234375 191.71875 564.207031 191.734375 C 564.035156 191.851562 563.195312 192.226562 562.050781 192.238281 C 560.90625 192.277344 559.683594 191.878906 559.015625 191.480469 C 558.324219 191.082031 558.097656 190.773438 558.085938 190.761719 C 558.097656 190.773438 558.125 190.828125 558.191406 190.933594 C 558.257812 191.054688 558.351562 191.226562 558.457031 191.441406 C 558.65625 191.878906 558.882812 192.476562 559.070312 193.144531 C 559.46875 194.449219 559.65625 196.03125 559.640625 196.777344 C 559.46875 202.902344 564.488281 207.867188 570.609375 207.867188 C 576.746094 207.867188 581.859375 202.902344 581.820312 196.777344 Z M 581.820312 196.777344 " fill-opacity="1" fill-rule="nonzero"/><path fill="#ff66c4" d="M 466.695312 201.597656 C 466.953125 200.839844 467.417969 199.519531 467.855469 197.894531 C 468.292969 196.257812 468.734375 194.328125 468.839844 191.824219 C 468.878906 190.574219 468.828125 189.148438 468.46875 187.484375 C 468.105469 185.835938 467.417969 183.878906 466.019531 181.976562 C 464.648438 180.070312 462.515625 178.367188 460.28125 177.460938 C 458.03125 176.515625 455.835938 176.265625 453.917969 176.316406 C 451.851562 176.359375 449.738281 176.835938 447.847656 177.703125 C 445.957031 178.554688 444.347656 179.777344 443.082031 181.109375 C 440.539062 183.8125 439.328125 186.792969 438.726562 189.601562 C 438.15625 192.4375 438.195312 195.222656 438.859375 198.082031 C 439.566406 200.90625 440.9375 203.964844 443.773438 206.601562 C 446.929688 209.503906 450.949219 210.875 454.542969 210.980469 C 458.164062 211.089844 461.507812 210.171875 464.488281 208.332031 C 467.417969 206.496094 470.210938 203.515625 471.449219 199.226562 C 472.0625 197.125 472.210938 194.769531 471.824219 192.546875 C 471.449219 190.296875 470.597656 188.21875 469.480469 186.449219 C 468.269531 184.570312 466.710938 182.519531 463.714844 180.855469 C 462.238281 180.042969 460.375 179.445312 458.457031 179.324219 C 456.554688 179.191406 454.664062 179.539062 453.15625 180.109375 C 450.097656 181.296875 448.433594 182.988281 447.21875 184.359375 C 446.023438 185.769531 445.238281 187.058594 444.570312 188.296875 C 443.253906 190.746094 442.417969 193.039062 441.765625 195.019531 C 441.113281 196.976562 440.671875 198.601562 440.484375 199.347656 C 437.449219 210.941406 458.402344 216.464844 461.464844 204.871094 C 461.613281 204.339844 461.933594 203.179688 462.359375 201.902344 C 462.78125 200.636719 463.359375 199.242188 463.703125 198.628906 C 463.78125 198.46875 463.847656 198.375 463.859375 198.363281 C 463.859375 198.363281 463.859375 198.363281 463.847656 198.390625 C 463.820312 198.414062 463.78125 198.46875 463.714844 198.546875 C 463.433594 198.828125 462.769531 199.707031 460.734375 200.519531 C 459.75 200.890625 458.390625 201.15625 457.007812 201.050781 C 455.636719 200.972656 454.316406 200.53125 453.386719 200.027344 C 451.496094 198.949219 451.070312 198.042969 451.003906 198.015625 C 450.789062 197.683594 450.46875 197.019531 450.320312 196.113281 C 450.160156 195.234375 450.214844 194.15625 450.496094 193.222656 C 451.054688 191.292969 452.171875 190.28125 452.929688 189.800781 C 453.742188 189.324219 454.410156 189.136719 455.355469 189.148438 C 456.261719 189.148438 457.589844 189.589844 458.535156 190.480469 C 459.75 191.613281 460.015625 192.53125 460.136719 192.972656 C 460.242188 193.464844 460.242188 193.636719 460.171875 194.050781 C 460.082031 194.433594 459.90625 195.167969 458.949219 196.21875 C 458.46875 196.726562 457.765625 197.269531 456.941406 197.644531 C 456.113281 198.03125 455.183594 198.230469 454.449219 198.242188 C 454.011719 198.242188 453.027344 198.203125 451.761719 197.683594 C 450.511719 197.175781 449.125 196.097656 448.3125 194.953125 C 447.476562 193.808594 447.15625 192.769531 447.007812 192.132812 C 446.875 191.480469 446.886719 191.171875 446.886719 191.066406 C 446.886719 191.027344 446.886719 191.027344 446.886719 191.066406 C 446.875 191.105469 446.875 191.1875 446.847656 191.292969 C 446.808594 191.492188 446.742188 191.800781 446.648438 192.144531 C 446.460938 192.824219 446.195312 193.597656 445.929688 194.328125 C 443.90625 200.054688 446.953125 206.335938 452.695312 208.347656 C 458.417969 210.34375 464.714844 207.335938 466.695312 201.597656 Z M 466.695312 201.597656 " fill-opacity="1" fill-rule="nonzero"/><path fill="#ff66c4" d="M 569.601562 93.355469 C 569.679688 92.929688 569.917969 91.890625 570.171875 90.585938 C 570.414062 89.269531 570.679688 87.660156 570.730469 85.664062 C 570.746094 83.679688 570.613281 81.203125 569.359375 78.261719 C 568.734375 76.808594 567.789062 75.28125 566.5 73.933594 C 565.222656 72.589844 563.625 71.457031 561.960938 70.714844 C 559.164062 69.378906 555.460938 68.929688 552.308594 69.753906 C 549.125 70.554688 546.742188 72.285156 545.105469 74 C 543.441406 75.757812 542.390625 77.570312 541.605469 79.378906 C 540.847656 81.214844 540.367188 83.078125 540.207031 85.140625 C 539.875 89.324219 540.925781 93.621094 543.375 97.203125 C 545.785156 100.773438 549.671875 103.5 554.011719 104.550781 C 558.578125 105.722656 563.222656 104.9375 566.792969 103.140625 C 570.398438 101.332031 573.167969 98.628906 575.113281 95.378906 C 577.027344 92.117188 578.199219 88.125 577.695312 83.679688 C 577.242188 79.246094 574.644531 74.628906 570.851562 71.789062 C 569.386719 70.671875 567.722656 69.621094 565.511719 68.917969 C 563.34375 68.195312 560.46875 67.957031 557.738281 68.757812 C 555.011719 69.527344 552.8125 71.191406 551.457031 72.777344 C 550.058594 74.386719 549.300781 75.902344 548.753906 77.261719 C 547.703125 79.992188 547.4375 82.242188 547.300781 84.359375 C 547.210938 86.476562 547.300781 88.339844 547.714844 90.425781 C 548.859375 96.273438 554.542969 100.050781 560.375 98.867188 C 566.21875 97.683594 570.027344 91.984375 568.855469 86.140625 C 568.855469 86.179688 568.867188 86.210938 568.867188 86.222656 C 568.867188 86.234375 568.867188 86.234375 568.867188 86.222656 C 568.867188 86.210938 568.855469 86.140625 568.855469 86.0625 C 568.839844 85.902344 568.839844 85.664062 568.855469 85.449219 C 568.867188 85.238281 568.894531 85.035156 568.90625 84.96875 C 568.90625 84.941406 568.921875 84.941406 568.921875 84.941406 C 568.921875 84.941406 568.921875 84.941406 568.90625 84.96875 C 568.894531 85.011719 568.867188 85.101562 568.816406 85.261719 C 568.683594 85.570312 568.441406 86.15625 567.683594 87.035156 C 566.964844 87.886719 565.539062 89.03125 563.691406 89.535156 C 561.851562 90.082031 559.988281 89.867188 558.988281 89.523438 C 558.472656 89.363281 558.113281 89.175781 557.898438 89.054688 C 557.671875 88.9375 557.59375 88.871094 557.59375 88.871094 C 557.152344 88.644531 556.234375 87.273438 556.183594 86.195312 C 556.074219 85.101562 556.339844 84.554688 556.472656 84.316406 C 556.632812 84.0625 556.726562 83.933594 557.152344 83.691406 C 557.550781 83.464844 558.523438 83.265625 559.308594 83.492188 C 559.910156 83.601562 560.855469 84.199219 561.332031 84.929688 C 561.839844 85.664062 561.945312 86.40625 561.90625 86.808594 C 561.867188 87.355469 561.785156 87.566406 561.679688 87.859375 C 561.546875 88.136719 561.386719 88.484375 560.839844 89.070312 C 560.320312 89.628906 559.257812 90.496094 557.566406 90.921875 C 555.902344 91.386719 553.878906 91.054688 552.878906 90.546875 C 552.175781 90.230469 551.347656 89.683594 550.710938 88.992188 C 550.058594 88.3125 549.59375 87.539062 549.324219 86.941406 C 549.058594 86.316406 548.964844 85.859375 548.925781 85.582031 C 548.898438 85.449219 548.902344 85.355469 548.902344 85.304688 C 548.886719 85.238281 548.886719 85.25 548.886719 85.238281 C 548.886719 85.289062 548.847656 85.808594 548.699219 86.5 C 548.566406 87.207031 548.367188 88.046875 548.140625 89.152344 C 546.957031 95.074219 550.894531 100.839844 556.820312 101.996094 C 562.757812 103.152344 568.535156 99.292969 569.601562 93.355469 Z M 569.601562 93.355469 " fill-opacity="1" fill-rule="nonzero"/><path fill="#ff66c4" d="M 468.8125 108.304688 C 470.792969 105.484375 471.832031 102.515625 472.324219 99.519531 C 472.777344 96.523438 472.683594 93.421875 471.753906 90.214844 C 470.832031 87.058594 468.917969 83.613281 465.507812 81.066406 C 462.15625 78.488281 457.558594 77.382812 453.488281 77.78125 C 451.597656 77.941406 449.480469 78.40625 447.351562 79.578125 C 445.222656 80.710938 443.238281 82.667969 442.078125 84.785156 C 440.894531 86.898438 440.453125 88.988281 440.320312 90.722656 C 440.214844 92.453125 440.375 93.886719 440.613281 95.140625 C 441.121094 97.628906 441.90625 99.480469 442.652344 101.0625 C 443.410156 102.660156 444.167969 103.914062 444.835938 104.9375 C 448.136719 109.96875 454.898438 111.355469 459.933594 108.054688 C 464.964844 104.75 466.363281 98.003906 463.046875 92.984375 C 462.898438 92.769531 462.554688 92.1875 462.328125 91.691406 C 462.207031 91.4375 462.113281 91.199219 462.074219 91.066406 C 462.046875 90.988281 462.035156 90.933594 462.019531 90.921875 C 462.035156 90.933594 462.035156 90.933594 462.046875 91.011719 C 462.074219 91.160156 462.15625 91.535156 462.101562 92.265625 C 462.046875 92.996094 461.847656 94.179688 461.101562 95.5 C 460.398438 96.828125 459.066406 98.09375 457.867188 98.734375 C 456.65625 99.386719 455.710938 99.519531 455.3125 99.558594 C 455.058594 99.652344 453.476562 99.453125 452.382812 98.574219 C 451.238281 97.722656 450.839844 96.753906 450.730469 96.402344 C 450.625 96.003906 450.679688 96.058594 450.652344 96.070312 C 450.664062 96.058594 450.652344 96.070312 450.679688 96.003906 C 450.707031 95.925781 450.757812 95.78125 450.929688 95.539062 C 443.980469 105.496094 461.820312 118.222656 468.8125 108.304688 Z M 468.8125 108.304688 " fill-opacity="1" fill-rule="nonzero"/><path fill="#ff66c4" d="M 514.3125 147.738281 C 515.722656 146.351562 517.136719 144.980469 518.558594 143.597656 C 518.878906 143.292969 519.027344 143.132812 519.238281 142.878906 C 520.105469 141.867188 520.757812 140.933594 521.515625 139.683594 C 522.246094 138.429688 523.003906 136.992188 523.65625 134.941406 C 523.964844 133.90625 524.257812 132.695312 524.335938 131.125 C 524.40625 129.578125 524.269531 127.570312 523.324219 125.332031 C 522.421875 123.109375 520.503906 120.859375 518.375 119.59375 C 516.230469 118.277344 514.140625 117.8125 512.410156 117.652344 C 508.511719 117.304688 505.195312 118.570312 502.867188 120.046875 C 500.496094 121.578125 498.832031 123.375 497.488281 125.292969 C 496.15625 127.234375 495.15625 129.339844 494.546875 131.789062 C 493.972656 134.210938 493.679688 137.125 494.773438 140.574219 C 495.714844 143.570312 497.792969 146.324219 500.351562 148.015625 C 502.90625 149.734375 505.78125 150.480469 508.550781 150.425781 C 511.332031 150.371094 514.101562 149.535156 516.535156 147.828125 C 518.972656 146.152344 520.984375 143.488281 521.925781 140.492188 C 522.859375 137.539062 522.742188 134.984375 522.273438 132.71875 C 521.78125 130.457031 520.890625 128.394531 519.453125 126.410156 C 518 124.480469 515.898438 122.484375 512.703125 121.3125 C 511.117188 120.738281 509.292969 120.433594 507.472656 120.527344 C 505.636719 120.605469 503.835938 121.070312 502.292969 121.789062 C 500.203125 122.722656 498.046875 124.398438 496.59375 126.542969 C 495.117188 128.675781 494.453125 131.042969 494.265625 132.972656 C 493.933594 136.898438 494.835938 139.429688 495.597656 141.546875 C 496.421875 143.648438 497.339844 145.3125 498.113281 146.683594 C 498.886719 148.015625 499.578125 149.121094 499.667969 149.292969 C 502.4375 154.566406 509.042969 156.390625 514.246094 153.472656 C 519.4375 150.558594 521.421875 143.914062 518.480469 138.738281 C 517.867188 137.660156 517.347656 136.859375 516.84375 135.957031 C 516.351562 135.089844 515.925781 134.226562 515.765625 133.796875 C 515.722656 133.691406 515.710938 133.625 515.699219 133.597656 C 515.699219 133.585938 515.699219 133.613281 515.699219 133.597656 C 515.710938 133.613281 515.710938 133.636719 515.722656 133.691406 C 515.75 133.863281 515.855469 134.332031 515.765625 135.222656 C 515.683594 136.101562 515.339844 137.488281 514.433594 138.777344 C 513.566406 140.09375 512.238281 141.066406 511.304688 141.464844 C 510.558594 141.8125 509.535156 142.105469 508.457031 142.148438 C 507.363281 142.210938 506.257812 142.011719 505.355469 141.679688 C 503.492188 141 502.542969 139.988281 502.011719 139.285156 C 501.480469 138.523438 501.238281 137.964844 501.066406 137.207031 C 500.921875 136.460938 500.800781 135.449219 501.292969 133.8125 C 501.71875 132.402344 502.800781 130.921875 504.089844 130.058594 C 505.378906 129.152344 506.777344 128.738281 508.175781 128.714844 C 509.574219 128.6875 511.09375 129.058594 512.488281 129.992188 C 513.886719 130.898438 515.019531 132.46875 515.445312 133.851562 C 515.976562 135.636719 515.738281 136.582031 515.65625 137.019531 C 515.539062 137.460938 515.484375 137.527344 515.40625 137.671875 C 515.3125 137.792969 515.179688 138.019531 514.527344 138.457031 C 513.902344 138.871094 512.449219 139.550781 510.425781 139.363281 C 509.734375 139.296875 508.457031 139.082031 506.925781 138.152344 C 505.394531 137.273438 503.902344 135.515625 503.25 133.878906 C 502.558594 132.226562 502.503906 130.898438 502.535156 130.070312 C 502.585938 129.21875 502.71875 128.792969 502.785156 128.539062 C 502.945312 128.074219 502.890625 128.289062 502.757812 128.472656 C 502.707031 128.566406 502.640625 128.675781 502.597656 128.714844 C 502.585938 128.726562 502.585938 128.738281 502.574219 128.753906 C 502.574219 128.753906 502.574219 128.753906 502.574219 128.738281 C 502.585938 128.738281 502.609375 128.699219 502.691406 128.609375 C 502.917969 128.367188 503.144531 128.128906 503.371094 127.886719 C 501.945312 129.261719 500.523438 130.632812 499.097656 132 C 494.746094 136.195312 494.636719 143.132812 498.84375 147.472656 C 503.039062 151.824219 509.976562 151.941406 514.3125 147.738281 Z M 514.3125 147.738281 " fill-opacity="1" fill-rule="nonzero"/><path fill="#ff66c4" d="M 517.046875 254.847656 C 518.960938 251.53125 520.878906 248.230469 522.796875 244.914062 C 515.996094 242.613281 509.191406 240.324219 502.402344 238.019531 C 501.910156 241.574219 501.417969 245.128906 500.925781 248.695312 C 500.085938 254.726562 504.359375 260.277344 510.390625 261.078125 C 516.421875 261.890625 521.996094 257.640625 522.769531 251.613281 C 523.234375 248.042969 523.6875 244.488281 524.140625 240.921875 C 524.488281 238.207031 523.847656 235.636719 522.503906 233.546875 C 521.171875 231.457031 519.09375 229.847656 516.726562 229.0625 C 514.371094 228.277344 511.75 228.316406 509.417969 229.207031 C 507.089844 230.074219 505.039062 231.75 503.746094 234.027344 C 501.871094 237.355469 499.980469 240.695312 498.101562 244.023438 C 492.179688 254.515625 511.015625 265.285156 517.046875 254.847656 Z M 517.046875 254.847656 " fill-opacity="1" fill-rule="nonzero"/><path fill="#ff66c4" d="M 616.355469 118.0625 C 616.105469 120.433594 615.851562 122.800781 615.585938 125.171875 C 614.933594 131.1875 619.378906 136.554688 625.394531 137.152344 C 631.414062 137.75 636.832031 133.371094 637.378906 127.355469 C 637.589844 124.972656 637.800781 122.601562 638.027344 120.234375 C 639.121094 108.25 617.675781 106.109375 616.355469 118.0625 Z M 616.355469 118.0625 " fill-opacity="1" fill-rule="nonzero"/><path fill="#ff66c4" d="M 570.703125 4.589844 C 573.777344 5.125 576.867188 5.644531 579.941406 6.175781 C 585.960938 7.199219 591.617188 2.96875 592.535156 -3.0625 C 593.46875 -9.09375 589.339844 -14.84375 583.296875 -15.667969 C 580.207031 -16.082031 577.105469 -16.507812 574.019531 -16.933594 C 568.148438 -17.730469 562.796875 -13.554688 561.902344 -7.773438 C 561.011719 -2 564.859375 3.59375 570.703125 4.589844 Z M 570.703125 4.589844 " fill-opacity="1" fill-rule="nonzero"/><path fill="#ff66c4" d="M 484.480469 6.203125 C 485.878906 5.882812 487.289062 5.5625 488.699219 5.242188 C 494.398438 3.953125 498.035156 -1.53125 497.101562 -7.152344 C 496.15625 -12.769531 490.953125 -16.777344 485.144531 -16.148438 C 483.710938 -15.988281 482.257812 -15.84375 480.835938 -15.683594 C 474.738281 -15.03125 470.703125 -8.960938 471.714844 -2.917969 C 472.710938 3.125 478.503906 7.546875 484.480469 6.203125 Z M 484.480469 6.203125 " fill-opacity="1" fill-rule="nonzero"/><path fill="#ff66c4" d="M 379.53125 103.113281 C 378.105469 103.578125 376.679688 104.058594 375.257812 104.539062 C 369.839844 106.335938 367.695312 112.832031 369.398438 117.96875 C 371.117188 123.109375 376.734375 127.007812 382.152344 125.199219 C 383.574219 124.734375 385 124.253906 386.410156 123.785156 C 391.832031 121.976562 393.988281 115.480469 392.28125 110.34375 C 390.566406 105.203125 384.949219 101.304688 379.53125 103.113281 Z M 379.53125 103.113281 " fill-opacity="1" fill-rule="nonzero"/><path fill="#ff66c4" d="M 415.351562 55.710938 C 416.511719 54.03125 417.667969 52.355469 418.828125 50.675781 C 425.628906 40.839844 408.335938 28.488281 401.226562 38.097656 C 400.015625 39.734375 398.804688 41.386719 397.578125 43.023438 C 394 47.867188 395.226562 54.75 400.125 58.253906 C 405.035156 61.753906 411.929688 60.675781 415.351562 55.710938 Z M 415.351562 55.710938 " fill-opacity="1" fill-rule="nonzero"/><path fill="#ff66c4" d="M 376.921875 216.679688 C 378.347656 216.917969 379.773438 217.160156 381.195312 217.398438 C 387.015625 218.355469 392.402344 214.191406 393.363281 208.453125 C 394.320312 202.714844 390.566406 197.019531 384.75 196.046875 C 383.324219 195.804688 381.914062 195.566406 380.488281 195.328125 C 374.671875 194.355469 369.28125 198.535156 368.324219 204.273438 C 367.363281 210.011719 371.105469 215.707031 376.921875 216.679688 Z M 376.921875 216.679688 " fill-opacity="1" fill-rule="nonzero"/><path fill="#ff66c4" d="M 441.65625 290.734375 C 441.628906 287.886719 441.601562 285.039062 441.589844 282.1875 C 441.496094 270.140625 419.863281 270.140625 419.769531 282.1875 C 419.746094 285.039062 419.71875 287.886719 419.703125 290.734375 C 419.648438 296.792969 424.617188 301.71875 430.671875 301.703125 C 436.746094 301.703125 441.710938 296.792969 441.65625 290.734375 Z M 441.65625 290.734375 " fill-opacity="1" fill-rule="nonzero"/><path fill="#ff66c4" d="M 535.164062 315.175781 C 536.988281 311.582031 538.808594 307.976562 540.632812 304.378906 C 546.050781 293.703125 527.363281 283.71875 521.503906 294.167969 C 519.535156 297.699219 517.5625 301.210938 515.59375 304.738281 C 512.597656 310.078125 514.753906 316.855469 520.160156 319.742188 C 525.5625 322.617188 532.394531 320.632812 535.164062 315.175781 Z M 535.164062 315.175781 " fill-opacity="1" fill-rule="nonzero"/><path fill="#ff66c4" d="M 631.289062 235.691406 C 628.425781 234.050781 625.578125 232.402344 622.714844 230.765625 C 618.214844 228.179688 612.492188 232.253906 610.242188 236.117188 C 607.992188 239.960938 607.257812 246.964844 611.71875 249.601562 C 614.566406 251.277344 617.402344 252.957031 620.238281 254.632812 C 625.457031 257.722656 632.179688 255.925781 635.242188 250.691406 C 638.289062 245.460938 636.546875 238.710938 631.289062 235.691406 Z M 631.289062 235.691406 " fill-opacity="1" fill-rule="nonzero"/><path fill="#ff66c4" d="M 675.933594 182.761719 C 679.007812 179.898438 682.082031 177.035156 685.144531 174.171875 C 693.984375 165.933594 679.234375 149.945312 670.316406 158.09375 C 667.226562 160.929688 664.125 163.765625 661.023438 166.597656 C 656.535156 170.699219 656.285156 177.675781 660.398438 182.132812 C 664.523438 186.59375 671.5 186.898438 675.933594 182.761719 Z M 675.933594 182.761719 " fill-opacity="1" fill-rule="nonzero"/><path fill="#ff66c4" d="M 646.640625 48.402344 C 647.8125 47.429688 648.996094 46.472656 650.167969 45.511719 C 655.304688 41.320312 647.890625 32.039062 642.660156 36.128906 C 641.460938 37.074219 640.261719 38.003906 639.078125 38.949219 C 636.441406 41.011719 636.042969 44.847656 638.132812 47.457031 C 640.222656 50.066406 644.042969 50.519531 646.640625 48.402344 Z M 646.640625 48.402344 " fill-opacity="1" fill-rule="nonzero"/><path fill="#ff66c4" d="M 520.90625 45.84375 C 521.625 44.886719 522.328125 43.941406 523.046875 42.996094 C 525.03125 40.347656 524.5 36.59375 521.851562 34.609375 C 519.203125 32.625 515.449219 33.160156 513.464844 35.808594 C 512.746094 36.753906 512.039062 37.699219 511.320312 38.65625 C 509.335938 41.308594 509.882812 45.0625 512.53125 47.042969 C 515.167969 49.027344 518.921875 48.496094 520.90625 45.84375 Z M 520.90625 45.84375 " fill-opacity="1" fill-rule="nonzero"/><path fill="#ff66c4" d="M 354.285156 55.042969 C 353.566406 54.3125 352.847656 53.59375 352.117188 52.875 C 347.414062 48.160156 338.882812 56.683594 343.59375 61.394531 C 344.3125 62.113281 345.046875 62.84375 345.765625 63.5625 C 350.476562 68.277344 358.996094 59.742188 354.285156 55.042969 Z M 354.285156 55.042969 " fill-opacity="1" fill-rule="nonzero"/><path fill="#ff66c4" d="M 422.527344 138.003906 C 421.449219 138.003906 420.355469 138.003906 419.265625 138.003906 C 415.949219 138.003906 413.246094 140.695312 413.246094 144.023438 C 413.246094 147.335938 415.949219 150.039062 419.265625 150.039062 C 420.355469 150.039062 421.449219 150.039062 422.527344 150.039062 C 425.855469 150.039062 428.542969 147.335938 428.542969 144.023438 C 428.542969 140.695312 425.855469 138.003906 422.527344 138.003906 Z M 422.527344 138.003906 " fill-opacity="1" fill-rule="nonzero"/><path fill="#ff66c4" d="M 358.214844 167.570312 C 359.640625 166.71875 361.0625 165.867188 362.488281 165.027344 C 364.949219 163.5625 364.617188 159.730469 363.417969 157.585938 C 362.207031 155.445312 359.105469 153.167969 356.574219 154.511719 C 355.109375 155.296875 353.632812 156.070312 352.167969 156.855469 C 349.175781 158.4375 348.164062 162.273438 349.828125 165.226562 C 351.492188 168.195312 355.285156 169.316406 358.214844 167.570312 Z M 358.214844 167.570312 " fill-opacity="1" fill-rule="nonzero"/><path fill="#ff66c4" d="M 412.609375 236.023438 C 411.613281 237.113281 410.628906 238.207031 409.628906 239.296875 C 405.117188 244.261719 414.035156 252.4375 418.601562 247.496094 C 419.601562 246.417969 420.597656 245.339844 421.597656 244.261719 C 423.886719 241.785156 423.699219 237.925781 421.222656 235.648438 C 418.734375 233.375 414.875 233.535156 412.609375 236.023438 Z M 412.609375 236.023438 " fill-opacity="1" fill-rule="nonzero"/><path fill="#ff66c4" d="M 590.734375 285.261719 C 590.46875 285.476562 590.214844 285.675781 589.949219 285.875 C 584.707031 290.015625 590.84375 299.199219 596.671875 295.953125 C 596.953125 295.792969 597.246094 295.632812 597.523438 295.472656 C 600.480469 293.835938 601.117188 289.800781 599.242188 286.980469 C 597.363281 284.160156 593.398438 283.171875 590.734375 285.261719 Z M 590.734375 285.261719 " fill-opacity="1" fill-rule="nonzero"/><path fill="#ff66c4" d="M 685.367188 222.925781 C 683.554688 222.949219 681.746094 222.964844 679.933594 222.992188 C 676.621094 223.03125 673.917969 225.679688 673.917969 229.007812 C 673.917969 232.335938 676.621094 234.984375 679.933594 235.023438 C 681.746094 235.050781 683.554688 235.066406 685.367188 235.089844 C 688.734375 235.132812 691.449219 232.363281 691.449219 229.007812 C 691.449219 225.652344 688.734375 222.882812 685.367188 222.925781 Z M 685.367188 222.925781 " fill-opacity="1" fill-rule="nonzero"/><path fill="#ff66c4" d="M 691.675781 99.265625 C 692.125 98.28125 692.589844 97.285156 693.042969 96.296875 C 694.46875 93.261719 693.097656 89.667969 690.050781 88.269531 C 687 86.886719 683.394531 88.21875 682.035156 91.277344 C 681.582031 92.277344 681.144531 93.277344 680.691406 94.273438 C 678.003906 100.371094 688.863281 105.296875 691.675781 99.265625 Z M 691.675781 99.265625 " fill-opacity="1" fill-rule="nonzero"/><path fill="#ff66c4" d="M 565.789062 145.683594 C 566.230469 143.78125 566.667969 141.878906 567.109375 139.976562 C 568.597656 133.53125 557.03125 130.777344 555.445312 137.207031 C 554.980469 139.097656 554.515625 141 554.046875 142.890625 C 553.261719 146.125 555.285156 149.386719 558.519531 150.15625 C 561.769531 150.929688 565.03125 148.933594 565.789062 145.683594 Z M 565.789062 145.683594 " fill-opacity="1" fill-rule="nonzero"/><path fill="#ff66c4" d="M 618.722656 185.011719 C 619.363281 184.117188 619.988281 183.214844 620.628906 182.308594 C 622.585938 179.527344 621.90625 175.679688 619.125 173.734375 C 616.339844 171.777344 612.492188 172.457031 610.550781 175.238281 C 609.910156 176.144531 609.273438 177.0625 608.648438 177.96875 C 604.761719 183.535156 614.824219 190.574219 618.722656 185.011719 Z M 618.722656 185.011719 " fill-opacity="1" fill-rule="nonzero"/><path fill="#ff66c4" d="M 512.886719 194.6875 C 512.699219 193.796875 512.527344 192.890625 512.339844 191.988281 C 511.6875 188.710938 508.519531 186.59375 505.246094 187.246094 C 501.984375 187.898438 499.851562 191.082031 500.503906 194.34375 C 500.691406 195.246094 500.878906 196.167969 501.050781 197.070312 C 501.71875 200.332031 504.886719 202.449219 508.160156 201.796875 C 511.421875 201.144531 513.539062 197.964844 512.886719 194.6875 Z M 512.886719 194.6875 " fill-opacity="1" fill-rule="nonzero"/><path fill="#ff66c4" d="M 593.511719 41.800781 C 594.574219 40.828125 595.640625 39.84375 596.71875 38.871094 C 601.617188 34.382812 593.75 25.546875 588.730469 29.886719 C 587.625 30.832031 586.535156 31.773438 585.441406 32.722656 C 582.898438 34.917969 582.714844 38.789062 584.9375 41.292969 C 587.171875 43.808594 591.035156 44.0625 593.511719 41.800781 Z M 593.511719 41.800781 " fill-opacity="1" fill-rule="nonzero"/><path fill="#ff66c4" d="M 433.132812 5.5625 C 433.585938 3.632812 434.054688 1.699219 434.503906 -0.214844 C 436.035156 -6.65625 424.5625 -9.519531 422.882812 -3.128906 C 422.378906 -1.210938 421.871094 0.703125 421.378906 2.621094 C 420.527344 5.867188 422.539062 9.171875 425.785156 9.96875 C 429.03125 10.78125 432.363281 8.824219 433.132812 5.5625 Z M 433.132812 5.5625 " fill-opacity="1" fill-rule="nonzero"/><path fill="#ff66c4" d="M 351.132812 250.039062 C 350.640625 251.117188 350.164062 252.195312 349.683594 253.289062 C 348.339844 256.308594 349.710938 259.851562 352.734375 261.183594 C 355.753906 262.527344 359.296875 261.167969 360.640625 258.148438 C 361.117188 257.070312 361.597656 255.976562 362.078125 254.898438 C 363.421875 251.878906 362.066406 248.335938 359.042969 246.992188 C 356.023438 245.648438 352.480469 247.019531 351.132812 250.039062 Z M 351.132812 250.039062 " fill-opacity="1" fill-rule="nonzero"/><path fill="#ff66c4" d="M 326.996094 116 C 325.199219 116.117188 323.390625 116.238281 321.59375 116.359375 C 318.304688 116.570312 315.828125 119.445312 316.042969 122.734375 C 316.269531 126.023438 319.105469 128.527344 322.390625 128.3125 C 324.1875 128.191406 326 128.074219 327.796875 127.953125 C 331.097656 127.726562 333.574219 124.863281 333.347656 121.578125 C 333.132812 118.289062 330.300781 115.773438 326.996094 116 Z M 326.996094 116 " fill-opacity="1" fill-rule="nonzero"/><path fill="#ff66c4" d="M 704.769531 41.546875 C 704.636719 40.585938 704.488281 39.628906 704.355469 38.671875 C 703.410156 32.039062 691.617188 33.503906 692.324219 40.175781 C 692.414062 41.132812 692.523438 42.105469 692.628906 43.0625 C 692.988281 46.433594 696.105469 48.800781 699.457031 48.375 C 702.8125 47.960938 705.25 44.886719 704.769531 41.546875 Z M 704.769531 41.546875 " fill-opacity="1" fill-rule="nonzero"/><path fill="#ff66c4" d="M 792.609375 61.640625 C 792.625 64.902344 793.128906 68.136719 794.089844 71.464844 C 795.085938 74.765625 796.457031 78.132812 799.066406 81.449219 C 800.382812 83.085938 802.074219 84.75 804.378906 86.082031 C 806.65625 87.410156 809.648438 88.316406 812.699219 88.25 C 815.746094 88.222656 818.648438 87.265625 821.019531 85.921875 C 823.414062 84.5625 825.398438 82.832031 827.222656 80.863281 C 829.84375 77.933594 831.613281 74.726562 832.878906 70.917969 C 833.492188 69.015625 833.945312 66.964844 834.0625 64.675781 C 834.171875 62.398438 833.972656 59.84375 832.972656 57.125 C 832.203125 54.996094 830.910156 52.984375 829.296875 51.402344 C 827.6875 49.804688 825.769531 48.660156 823.867188 47.941406 C 819.992188 46.515625 816.210938 46.675781 812.804688 47.753906 C 810.128906 48.671875 808.890625 49.710938 807.679688 50.65625 C 806.523438 51.613281 805.5625 52.585938 804.65625 53.625 C 802.875 55.703125 801.289062 57.976562 799.945312 60.601562 C 799.265625 61.917969 798.652344 63.316406 798.175781 64.96875 C 797.707031 66.632812 797.296875 68.535156 797.496094 71.15625 C 797.617188 72.449219 797.933594 73.941406 798.625 75.496094 C 799.320312 77.054688 800.4375 78.652344 801.863281 79.890625 C 803.273438 81.128906 804.921875 81.992188 806.441406 82.484375 C 807.972656 82.992188 809.398438 83.179688 810.6875 83.203125 C 813.070312 83.269531 815.90625 82.9375 818.796875 81.355469 C 821.683594 79.824219 824.027344 76.839844 824.945312 74.179688 C 825.929688 71.476562 825.957031 69.226562 825.824219 67.363281 C 825.664062 65.5 825.292969 63.957031 824.863281 62.53125 C 824.011719 59.722656 822.894531 57.394531 821.882812 55.4375 C 820.871094 53.492188 819.925781 51.960938 819.433594 51.148438 C 813.070312 40.992188 794.6875 52.453125 801.011719 62.636719 C 801.316406 63.128906 801.96875 64.207031 802.59375 65.433594 C 803.234375 66.644531 803.832031 68.054688 804.03125 68.800781 C 804.085938 68.988281 804.125 69.121094 804.125 69.171875 C 804.140625 69.199219 804.125 69.1875 804.140625 69.199219 C 804.125 69.1875 804.125 69.148438 804.113281 69.082031 C 804.113281 68.828125 804.019531 68.027344 804.539062 66.566406 C 804.992188 65.128906 806.535156 63.144531 808.210938 62.292969 C 809.875 61.386719 811.0625 61.414062 811.300781 61.414062 C 811.714844 61.425781 812.378906 61.480469 813.285156 61.773438 C 814.164062 62.066406 815.28125 62.625 816.28125 63.503906 C 817.277344 64.367188 818.074219 65.511719 818.542969 66.550781 C 819.007812 67.601562 819.179688 68.523438 819.246094 69.199219 C 819.339844 70.558594 819.140625 71.023438 819.128906 71.117188 C 819.140625 71.105469 819.15625 71.0625 819.179688 71.011719 C 819.222656 70.917969 819.289062 70.757812 819.382812 70.570312 C 819.769531 69.828125 820.566406 68.679688 821.152344 68.027344 C 821.296875 67.871094 821.417969 67.734375 821.511719 67.644531 C 821.550781 67.601562 821.589844 67.578125 821.605469 67.550781 C 821.617188 67.550781 821.628906 67.535156 821.628906 67.535156 C 821.628906 67.535156 821.632812 67.535156 821.617188 67.550781 C 821.511719 67.578125 821.296875 67.976562 819.472656 68.628906 C 818.675781 68.867188 817.648438 69.015625 816.144531 68.480469 C 815.414062 68.203125 814.589844 67.722656 813.882812 67.03125 C 813.175781 66.339844 812.632812 65.460938 812.367188 64.699219 C 812.085938 63.929688 812.125 63.542969 812.113281 63.53125 C 812.113281 63.53125 812.113281 63.53125 812.113281 63.554688 C 812.101562 63.582031 812.097656 63.636719 812.085938 63.6875 C 812.058594 63.796875 812.019531 63.96875 811.953125 64.15625 C 811.753906 64.902344 811.035156 65.992188 811.007812 65.9375 C 810.6875 66.285156 810.4375 66.511719 810.289062 66.617188 C 810.222656 66.683594 810.183594 66.710938 810.167969 66.722656 C 810.167969 66.710938 810.15625 66.722656 810.167969 66.710938 C 810.167969 66.710938 810.195312 66.699219 810.222656 66.683594 C 810.394531 66.566406 811.234375 66.191406 812.378906 66.179688 C 813.523438 66.140625 814.75 66.539062 815.414062 66.9375 C 816.105469 67.335938 816.332031 67.644531 816.347656 67.65625 C 816.332031 67.644531 816.304688 67.589844 816.238281 67.484375 C 816.171875 67.363281 816.078125 67.191406 815.972656 66.976562 C 815.773438 66.539062 815.546875 65.9375 815.359375 65.273438 C 814.960938 63.96875 814.777344 62.382812 814.789062 61.640625 C 814.960938 55.515625 809.941406 50.550781 803.820312 50.550781 C 797.683594 50.550781 792.570312 55.515625 792.609375 61.640625 Z M 792.609375 61.640625 " fill-opacity="1" fill-rule="nonzero"/><path fill="#ff66c4" d="M 907.734375 56.820312 C 907.480469 57.578125 907.015625 58.898438 906.574219 60.519531 C 906.136719 62.15625 905.695312 64.089844 905.589844 66.589844 C 905.550781 67.84375 905.605469 69.265625 905.960938 70.929688 C 906.324219 72.582031 907.015625 74.539062 908.410156 76.441406 C 909.785156 78.34375 911.914062 80.050781 914.148438 80.953125 C 916.398438 81.898438 918.597656 82.152344 920.511719 82.101562 C 922.578125 82.058594 924.691406 81.582031 926.582031 80.714844 C 928.472656 79.863281 930.082031 78.636719 931.347656 77.308594 C 933.890625 74.605469 935.101562 71.621094 935.703125 68.8125 C 936.277344 65.980469 936.234375 63.195312 935.570312 60.335938 C 934.863281 57.511719 933.492188 54.449219 930.65625 51.816406 C 927.5 48.914062 923.480469 47.542969 919.886719 47.433594 C 916.269531 47.328125 912.925781 48.246094 909.941406 50.085938 C 907.015625 51.921875 904.21875 54.902344 902.980469 59.191406 C 902.367188 61.292969 902.222656 63.648438 902.609375 65.871094 C 902.980469 68.121094 903.832031 70.199219 904.953125 71.96875 C 906.160156 73.847656 907.71875 75.894531 910.714844 77.558594 C 912.191406 78.371094 914.054688 78.972656 915.972656 79.089844 C 917.875 79.222656 919.765625 78.878906 921.273438 78.304688 C 924.332031 77.121094 926 75.429688 927.210938 74.058594 C 928.40625 72.648438 929.191406 71.355469 929.859375 70.117188 C 931.175781 67.667969 932.015625 65.378906 932.667969 63.394531 C 933.320312 61.4375 933.757812 59.816406 933.945312 59.070312 C 936.980469 47.476562 916.027344 41.949219 912.964844 53.546875 C 912.816406 54.078125 912.5 55.234375 912.074219 56.515625 C 911.648438 57.777344 911.074219 59.175781 910.726562 59.789062 C 910.648438 59.949219 910.582031 60.042969 910.570312 60.054688 C 910.570312 60.054688 910.570312 60.054688 910.582031 60.027344 C 910.609375 60 910.648438 59.949219 910.714844 59.867188 C 910.996094 59.589844 911.660156 58.710938 913.695312 57.898438 C 914.683594 57.527344 916.039062 57.257812 917.421875 57.367188 C 918.792969 57.445312 920.113281 57.886719 921.046875 58.390625 C 922.9375 59.46875 923.359375 60.375 923.429688 60.402344 C 923.640625 60.734375 923.960938 61.398438 924.109375 62.304688 C 924.269531 63.183594 924.214844 64.261719 923.9375 65.191406 C 923.375 67.125 922.257812 68.136719 921.5 68.613281 C 920.6875 69.09375 920.019531 69.28125 919.074219 69.265625 C 918.171875 69.265625 916.839844 68.828125 915.894531 67.9375 C 914.683594 66.804688 914.417969 65.886719 914.296875 65.445312 C 914.191406 64.953125 914.191406 64.78125 914.257812 64.367188 C 914.347656 63.980469 914.523438 63.25 915.480469 62.199219 C 915.960938 61.691406 916.664062 61.148438 917.488281 60.773438 C 918.316406 60.386719 919.25 60.1875 919.980469 60.175781 C 920.417969 60.175781 921.402344 60.214844 922.667969 60.734375 C 923.921875 61.238281 925.304688 62.316406 926.117188 63.460938 C 926.957031 64.609375 927.273438 65.644531 927.421875 66.285156 C 927.554688 66.9375 927.542969 67.242188 927.542969 67.351562 C 927.542969 67.390625 927.542969 67.390625 927.542969 67.351562 C 927.554688 67.308594 927.554688 67.230469 927.582031 67.125 C 927.621094 66.925781 927.6875 66.617188 927.78125 66.273438 C 927.96875 65.59375 928.234375 64.820312 928.5 64.089844 C 930.523438 58.363281 927.476562 52.082031 921.738281 50.070312 C 916.011719 48.074219 909.714844 51.082031 907.734375 56.820312 Z M 907.734375 56.820312 " fill-opacity="1" fill-rule="nonzero"/><path fill="#ff66c4" d="M 804.828125 165.0625 C 804.75 165.484375 804.511719 166.523438 804.257812 167.828125 C 804.019531 169.148438 803.75 170.757812 803.699219 172.753906 C 803.683594 174.738281 803.820312 177.214844 805.070312 180.15625 C 805.695312 181.609375 806.640625 183.136719 807.929688 184.484375 C 809.210938 185.828125 810.808594 186.957031 812.472656 187.703125 C 815.265625 189.035156 818.96875 189.488281 822.121094 188.664062 C 825.304688 187.863281 827.6875 186.132812 829.324219 184.417969 C 830.988281 182.65625 832.039062 180.847656 832.824219 179.039062 C 833.585938 177.203125 834.0625 175.339844 834.222656 173.273438 C 834.554688 169.09375 833.503906 164.796875 831.054688 161.214844 C 828.644531 157.644531 824.757812 154.917969 820.417969 153.867188 C 815.851562 152.691406 811.207031 153.480469 807.640625 155.277344 C 804.03125 157.085938 801.261719 159.789062 799.320312 163.035156 C 797.402344 166.296875 796.230469 170.292969 796.734375 174.738281 C 797.1875 179.171875 799.785156 183.789062 803.578125 186.625 C 805.042969 187.746094 806.707031 188.796875 808.917969 189.5 C 811.085938 190.21875 813.960938 190.460938 816.691406 189.660156 C 819.421875 188.890625 821.617188 187.222656 822.972656 185.640625 C 824.371094 184.03125 825.132812 182.511719 825.675781 181.15625 C 826.726562 178.425781 826.996094 176.175781 827.128906 174.058594 C 827.222656 171.941406 827.128906 170.078125 826.714844 167.988281 C 825.570312 162.144531 819.886719 158.363281 814.054688 159.546875 C 808.210938 160.734375 804.40625 166.433594 805.574219 172.273438 C 805.574219 172.234375 805.5625 172.207031 805.5625 172.195312 C 805.5625 172.183594 805.5625 172.183594 805.5625 172.195312 C 805.5625 172.207031 805.574219 172.273438 805.574219 172.355469 C 805.589844 172.515625 805.589844 172.753906 805.574219 172.96875 C 805.5625 173.179688 805.535156 173.382812 805.523438 173.449219 C 805.523438 173.472656 805.507812 173.472656 805.507812 173.472656 C 805.507812 173.472656 805.507812 173.472656 805.523438 173.449219 C 805.535156 173.40625 805.5625 173.3125 805.613281 173.152344 C 805.746094 172.847656 805.988281 172.261719 806.746094 171.382812 C 807.464844 170.53125 808.890625 169.386719 810.742188 168.882812 C 812.578125 168.335938 814.441406 168.550781 815.441406 168.894531 C 815.960938 169.054688 816.316406 169.242188 816.53125 169.359375 C 816.757812 169.480469 816.839844 169.546875 816.839844 169.546875 C 817.277344 169.773438 818.195312 171.144531 818.25 172.222656 C 818.355469 173.3125 818.089844 173.859375 817.957031 174.101562 C 817.796875 174.351562 817.703125 174.484375 817.277344 174.722656 C 816.878906 174.953125 815.90625 175.148438 815.121094 174.925781 C 814.523438 174.816406 813.574219 174.21875 813.097656 173.488281 C 812.589844 172.753906 812.484375 172.007812 812.523438 171.609375 C 812.566406 171.0625 812.644531 170.851562 812.75 170.558594 C 812.882812 170.277344 813.042969 169.933594 813.589844 169.347656 C 814.109375 168.789062 815.171875 167.921875 816.863281 167.496094 C 818.527344 167.03125 820.550781 167.363281 821.550781 167.867188 C 822.257812 168.1875 823.082031 168.734375 823.71875 169.425781 C 824.371094 170.105469 824.839844 170.878906 825.105469 171.476562 C 825.371094 172.101562 825.464844 172.554688 825.503906 172.835938 C 825.53125 172.96875 825.53125 173.0625 825.53125 173.113281 C 825.542969 173.179688 825.542969 173.167969 825.542969 173.179688 C 825.542969 173.128906 825.582031 172.609375 825.730469 171.917969 C 825.863281 171.210938 826.0625 170.371094 826.289062 169.265625 C 827.472656 163.34375 823.535156 157.578125 817.609375 156.421875 C 811.671875 155.261719 805.894531 159.121094 804.828125 165.0625 Z M 804.828125 165.0625 " fill-opacity="1" fill-rule="nonzero"/><path fill="#ff66c4" d="M 905.617188 150.113281 C 903.636719 152.933594 902.597656 155.902344 902.105469 158.898438 C 901.652344 161.890625 901.746094 164.992188 902.675781 168.203125 C 903.597656 171.355469 905.511719 174.804688 908.921875 177.347656 C 912.277344 179.929688 916.871094 181.035156 920.945312 180.636719 C 922.835938 180.476562 924.949219 180.011719 927.078125 178.839844 C 929.207031 177.707031 931.191406 175.75 932.351562 173.632812 C 933.535156 171.515625 933.976562 169.429688 934.109375 167.695312 C 934.214844 165.964844 934.054688 164.53125 933.816406 163.277344 C 933.308594 160.789062 932.523438 158.9375 931.777344 157.355469 C 931.019531 155.753906 930.261719 154.503906 929.59375 153.480469 C 926.292969 148.449219 919.53125 147.0625 914.5 150.363281 C 909.464844 153.667969 908.066406 160.414062 911.382812 165.433594 C 911.53125 165.644531 911.875 166.230469 912.101562 166.722656 C 912.222656 166.980469 912.316406 167.214844 912.355469 167.351562 C 912.382812 167.429688 912.398438 167.484375 912.410156 167.496094 C 912.398438 167.484375 912.394531 167.484375 912.382812 167.402344 C 912.355469 167.257812 912.277344 166.882812 912.328125 166.152344 C 912.382812 165.417969 912.582031 164.234375 913.328125 162.917969 C 914.03125 161.585938 915.363281 160.320312 916.5625 159.683594 C 917.773438 159.03125 918.71875 158.898438 919.117188 158.855469 C 919.371094 158.765625 920.953125 158.964844 922.046875 159.84375 C 923.191406 160.695312 923.59375 161.664062 923.699219 162.011719 C 923.804688 162.414062 923.753906 162.359375 923.777344 162.34375 C 923.765625 162.359375 923.777344 162.34375 923.753906 162.414062 C 923.722656 162.492188 923.671875 162.636719 923.5 162.875 C 930.449219 152.917969 912.609375 140.195312 905.617188 150.113281 Z M 905.617188 150.113281 " fill-opacity="1" fill-rule="nonzero"/><path fill="#ff66c4" d="M 860.117188 110.679688 C 858.707031 112.066406 857.292969 113.4375 855.871094 114.820312 C 855.550781 115.125 855.402344 115.285156 855.191406 115.539062 C 854.324219 116.550781 853.671875 117.480469 852.914062 118.734375 C 852.183594 119.984375 851.425781 121.425781 850.773438 123.472656 C 850.464844 124.511719 850.171875 125.722656 850.09375 127.292969 C 850.027344 128.835938 850.160156 130.847656 851.105469 133.085938 C 852.011719 135.308594 853.925781 137.558594 856.058594 138.824219 C 858.199219 140.140625 860.289062 140.605469 862.019531 140.765625 C 865.921875 141.113281 869.234375 139.847656 871.5625 138.371094 C 873.933594 136.839844 875.597656 135.039062 876.941406 133.125 C 878.273438 131.179688 879.273438 129.078125 879.882812 126.628906 C 880.457031 124.207031 880.75 121.289062 879.65625 117.84375 C 878.714844 114.847656 876.636719 112.089844 874.082031 110.398438 C 871.523438 108.683594 868.652344 107.9375 865.882812 107.992188 C 863.097656 108.046875 860.332031 108.882812 857.894531 110.585938 C 855.457031 112.265625 853.449219 114.925781 852.503906 117.921875 C 851.570312 120.878906 851.691406 123.433594 852.15625 125.695312 C 852.648438 127.960938 853.539062 130.023438 854.976562 132.007812 C 856.429688 133.9375 858.53125 135.933594 861.726562 137.105469 C 863.3125 137.679688 865.136719 137.984375 866.960938 137.890625 C 868.796875 137.808594 870.59375 137.347656 872.140625 136.625 C 874.226562 135.691406 876.382812 134.015625 877.835938 131.871094 C 879.3125 129.742188 879.976562 127.371094 880.164062 125.445312 C 880.496094 121.515625 879.59375 118.988281 878.832031 116.871094 C 878.007812 114.765625 877.089844 113.105469 876.320312 111.734375 C 875.546875 110.398438 874.855469 109.296875 874.761719 109.125 C 871.992188 103.851562 865.390625 102.027344 860.183594 104.941406 C 854.992188 107.859375 853.007812 114.5 855.949219 119.679688 C 856.5625 120.757812 857.082031 121.554688 857.585938 122.460938 C 858.078125 123.328125 858.507812 124.191406 858.667969 124.617188 C 858.707031 124.726562 858.71875 124.792969 858.730469 124.816406 C 858.730469 124.832031 858.730469 124.804688 858.730469 124.816406 C 858.71875 124.804688 858.71875 124.777344 858.707031 124.726562 C 858.679688 124.550781 858.574219 124.085938 858.667969 123.195312 C 858.746094 122.3125 859.09375 120.929688 859.996094 119.640625 C 860.863281 118.324219 862.191406 117.351562 863.125 116.949219 C 863.871094 116.601562 864.894531 116.3125 865.972656 116.269531 C 867.066406 116.207031 868.171875 116.40625 869.074219 116.738281 C 870.941406 117.414062 871.886719 118.429688 872.417969 119.132812 C 872.949219 119.894531 873.191406 120.453125 873.363281 121.210938 C 873.507812 121.957031 873.628906 122.964844 873.136719 124.605469 C 872.710938 126.015625 871.632812 127.492188 870.339844 128.359375 C 869.050781 129.261719 867.652344 129.679688 866.253906 129.703125 C 864.859375 129.730469 863.339844 129.359375 861.941406 128.425781 C 860.542969 127.519531 859.410156 125.949219 858.984375 124.566406 C 858.453125 122.78125 858.691406 121.835938 858.773438 121.394531 C 858.894531 120.957031 858.945312 120.890625 859.023438 120.742188 C 859.117188 120.625 859.25 120.398438 859.902344 119.960938 C 860.53125 119.546875 861.980469 118.867188 864.003906 119.050781 C 864.695312 119.121094 865.972656 119.332031 867.503906 120.265625 C 869.035156 121.144531 870.527344 122.902344 871.179688 124.539062 C 871.871094 126.1875 871.925781 127.519531 871.898438 128.34375 C 871.84375 129.199219 871.710938 129.625 871.644531 129.875 C 871.488281 130.34375 871.539062 130.128906 871.671875 129.945312 C 871.722656 129.851562 871.792969 129.742188 871.832031 129.703125 C 871.84375 129.691406 871.84375 129.679688 871.859375 129.664062 C 871.859375 129.664062 871.859375 129.664062 871.859375 129.679688 C 871.84375 129.679688 871.820312 129.714844 871.738281 129.808594 C 871.511719 130.050781 871.285156 130.289062 871.058594 130.527344 C 872.484375 129.15625 873.90625 127.785156 875.332031 126.417969 C 879.6875 122.222656 879.792969 115.285156 875.585938 110.945312 C 871.390625 106.59375 864.457031 106.472656 860.117188 110.679688 Z M 860.117188 110.679688 " fill-opacity="1" fill-rule="nonzero"/><path fill="#ff66c4" d="M 857.382812 3.570312 C 855.46875 6.886719 853.550781 10.1875 851.632812 13.5 C 858.4375 15.804688 865.238281 18.09375 872.027344 20.398438 C 872.519531 16.84375 873.011719 13.289062 873.503906 9.71875 C 874.34375 3.691406 870.070312 -1.859375 864.039062 -2.660156 C 858.011719 -3.472656 852.433594 0.773438 851.660156 6.804688 C 851.195312 10.371094 850.742188 13.925781 850.289062 17.496094 C 849.941406 20.210938 850.582031 22.78125 851.925781 24.871094 C 853.257812 26.960938 855.335938 28.570312 857.703125 29.355469 C 860.058594 30.140625 862.683594 30.101562 865.011719 29.210938 C 867.339844 28.34375 869.390625 26.667969 870.683594 24.390625 C 872.558594 21.0625 874.449219 17.722656 876.328125 14.394531 C 882.25 3.902344 863.414062 -6.867188 857.382812 3.570312 Z M 857.382812 3.570312 " fill-opacity="1" fill-rule="nonzero"/><path fill="#ff66c4" d="M 758.074219 140.355469 C 758.324219 137.984375 758.578125 135.617188 758.84375 133.246094 C 759.496094 127.226562 755.050781 121.863281 749.035156 121.265625 C 743.015625 120.667969 737.597656 125.042969 737.054688 131.0625 C 736.839844 133.445312 736.628906 135.8125 736.402344 138.183594 C 735.308594 150.164062 756.753906 152.308594 758.074219 140.355469 Z M 758.074219 140.355469 " fill-opacity="1" fill-rule="nonzero"/><path fill="#ff66c4" d="M 803.726562 253.824219 C 800.652344 253.292969 797.5625 252.773438 794.488281 252.242188 C 788.472656 251.214844 782.8125 255.449219 781.894531 261.480469 C 780.964844 267.507812 785.089844 273.261719 791.132812 274.085938 C 794.222656 274.5 797.324219 274.925781 800.414062 275.351562 C 806.285156 276.148438 811.632812 271.96875 812.527344 266.191406 C 813.417969 260.417969 809.570312 254.824219 803.726562 253.824219 Z M 803.726562 253.824219 " fill-opacity="1" fill-rule="nonzero"/><path fill="#ff66c4" d="M 889.949219 252.214844 C 888.550781 252.535156 887.140625 252.855469 885.730469 253.171875 C 880.03125 254.464844 876.394531 259.949219 877.328125 265.566406 C 878.273438 271.1875 883.480469 275.191406 889.285156 274.566406 C 890.722656 274.40625 892.171875 274.257812 893.597656 274.101562 C 899.695312 273.449219 903.726562 267.378906 902.714844 261.335938 C 901.71875 255.289062 895.925781 250.871094 889.949219 252.214844 Z M 889.949219 252.214844 " fill-opacity="1" fill-rule="nonzero"/><path fill="#ff66c4" d="M 994.898438 155.304688 C 996.324219 154.835938 997.75 154.359375 999.171875 153.878906 C 1004.59375 152.082031 1006.734375 145.585938 1005.03125 140.449219 C 1003.3125 135.308594 997.695312 131.40625 992.277344 133.21875 C 990.855469 133.683594 989.429688 134.164062 988.019531 134.628906 C 982.597656 136.441406 980.445312 142.9375 982.148438 148.074219 C 983.863281 153.214844 989.484375 157.113281 994.898438 155.304688 Z M 994.898438 155.304688 " fill-opacity="1" fill-rule="nonzero"/><path fill="#ff66c4" d="M 959.078125 202.707031 C 957.917969 204.386719 956.761719 206.0625 955.601562 207.738281 C 948.800781 217.578125 966.09375 229.929688 973.203125 220.320312 C 974.414062 218.683594 975.625 217.03125 976.851562 215.394531 C 980.429688 210.546875 979.207031 203.667969 974.308594 200.164062 C 969.394531 196.664062 962.5 197.742188 959.078125 202.707031 Z M 959.078125 202.707031 " fill-opacity="1" fill-rule="nonzero"/><path fill="#ff66c4" d="M 997.507812 41.738281 C 996.082031 41.496094 994.660156 41.257812 993.234375 41.019531 C 987.414062 40.058594 982.027344 44.226562 981.066406 49.964844 C 980.109375 55.703125 983.863281 61.398438 989.679688 62.371094 C 991.105469 62.609375 992.515625 62.851562 993.941406 63.089844 C 999.757812 64.0625 1005.148438 59.882812 1006.105469 54.144531 C 1007.066406 48.40625 1003.324219 42.710938 997.507812 41.738281 Z M 997.507812 41.738281 " fill-opacity="1" fill-rule="nonzero"/><path fill="#ff66c4" d="M 743.140625 22.726562 C 746.003906 24.363281 748.855469 26.015625 751.714844 27.652344 C 756.214844 30.234375 761.941406 26.164062 764.191406 22.300781 C 766.4375 18.453125 767.171875 11.453125 762.710938 8.816406 C 759.863281 7.140625 757.027344 5.460938 754.191406 3.785156 C 748.972656 0.695312 742.25 2.492188 739.1875 7.726562 C 736.140625 12.957031 737.882812 19.707031 743.140625 22.726562 Z M 743.140625 22.726562 " fill-opacity="1" fill-rule="nonzero"/><path fill="#ff66c4" d="M 698.5 75.65625 C 695.421875 78.519531 692.347656 81.382812 689.285156 84.242188 C 680.445312 92.484375 695.195312 108.472656 704.117188 100.324219 C 707.203125 97.488281 710.304688 94.652344 713.40625 91.816406 C 717.894531 87.71875 718.148438 80.742188 714.035156 76.28125 C 709.90625 71.824219 702.929688 71.515625 698.5 75.65625 Z M 698.5 75.65625 " fill-opacity="1" fill-rule="nonzero"/><path fill="#ff66c4" d="M 727.789062 210.015625 C 726.617188 210.988281 725.433594 211.945312 724.261719 212.90625 C 719.125 217.097656 726.539062 226.375 731.769531 222.289062 C 732.96875 221.34375 734.167969 220.414062 735.351562 219.464844 C 737.988281 217.402344 738.386719 213.570312 736.296875 210.960938 C 734.207031 208.351562 730.386719 207.898438 727.789062 210.015625 Z M 727.789062 210.015625 " fill-opacity="1" fill-rule="nonzero"/><path fill="#ff66c4" d="M 853.523438 212.570312 C 852.804688 213.527344 852.101562 214.476562 851.382812 215.421875 C 849.398438 218.070312 849.929688 221.824219 852.578125 223.804688 C 855.230469 225.792969 858.984375 225.257812 860.964844 222.609375 C 861.683594 221.664062 862.390625 220.71875 863.109375 219.761719 C 865.09375 217.109375 864.546875 213.355469 861.898438 211.375 C 859.261719 209.390625 855.507812 209.921875 853.523438 212.570312 Z M 853.523438 212.570312 " fill-opacity="1" fill-rule="nonzero"/><path fill="#ff66c4" d="M 1020.144531 203.371094 C 1020.863281 204.105469 1021.582031 204.824219 1022.316406 205.542969 C 1027.015625 210.257812 1035.546875 201.734375 1030.835938 197.023438 C 1030.117188 196.304688 1029.382812 195.574219 1028.664062 194.855469 C 1023.953125 190.140625 1015.433594 198.675781 1020.144531 203.371094 Z M 1020.144531 203.371094 " fill-opacity="1" fill-rule="nonzero"/><path fill="#ff66c4" d="M 951.902344 120.410156 C 952.980469 120.410156 954.074219 120.410156 955.164062 120.410156 C 958.480469 120.410156 961.183594 117.722656 961.183594 114.394531 C 961.183594 111.082031 958.480469 108.378906 955.164062 108.378906 C 954.074219 108.378906 952.980469 108.378906 951.902344 108.378906 C 948.574219 108.378906 945.886719 111.082031 945.886719 114.394531 C 945.886719 117.722656 948.574219 120.410156 951.902344 120.410156 Z M 951.902344 120.410156 " fill-opacity="1" fill-rule="nonzero"/><path fill="#ff66c4" d="M 1016.21875 90.84375 C 1014.792969 91.699219 1013.367188 92.550781 1011.941406 93.386719 C 1009.480469 94.851562 1009.8125 98.6875 1011.011719 100.828125 C 1012.222656 102.972656 1015.324219 105.25 1017.855469 103.90625 C 1019.320312 103.121094 1020.796875 102.347656 1022.261719 101.5625 C 1025.253906 99.976562 1026.269531 96.144531 1024.601562 93.1875 C 1022.9375 90.21875 1019.144531 89.101562 1016.21875 90.84375 Z M 1016.21875 90.84375 " fill-opacity="1" fill-rule="nonzero"/><path fill="#ff66c4" d="M 961.820312 22.394531 C 962.816406 21.304688 963.804688 20.210938 964.800781 19.121094 C 969.3125 14.152344 960.394531 5.980469 955.832031 10.917969 C 954.832031 11.996094 953.832031 13.078125 952.835938 14.15625 C 950.542969 16.628906 950.730469 20.492188 953.207031 22.765625 C 955.695312 25.042969 959.554688 24.882812 961.820312 22.394531 Z M 961.820312 22.394531 " fill-opacity="1" fill-rule="nonzero"/><path fill="#ff66c4" d="M 689.066406 35.492188 C 690.875 35.464844 692.6875 35.453125 694.496094 35.425781 C 697.8125 35.386719 700.515625 32.738281 700.515625 29.410156 C 700.515625 26.082031 697.8125 23.433594 694.496094 23.390625 C 692.6875 23.367188 690.875 23.351562 689.066406 23.324219 C 685.695312 23.285156 682.980469 26.054688 682.980469 29.410156 C 682.980469 32.765625 685.695312 35.53125 689.066406 35.492188 Z M 689.066406 35.492188 " fill-opacity="1" fill-rule="nonzero"/><path fill="#ff66c4" d="M 682.757812 159.152344 C 682.304688 160.136719 681.839844 161.132812 681.386719 162.121094 C 679.960938 165.15625 681.332031 168.75 684.382812 170.148438 C 687.429688 171.53125 691.035156 170.199219 692.394531 167.136719 C 692.847656 166.140625 693.285156 165.140625 693.738281 164.144531 C 696.429688 158.046875 685.566406 153.121094 682.757812 159.152344 Z M 682.757812 159.152344 " fill-opacity="1" fill-rule="nonzero"/><path fill="#ff66c4" d="M 808.640625 112.734375 C 808.203125 114.636719 807.761719 116.539062 807.324219 118.441406 C 805.832031 124.882812 817.398438 127.640625 818.984375 121.210938 C 819.449219 119.320312 819.917969 117.417969 820.382812 115.527344 C 821.167969 112.292969 819.144531 109.03125 815.910156 108.257812 C 812.660156 107.488281 809.398438 109.484375 808.640625 112.734375 Z M 808.640625 112.734375 " fill-opacity="1" fill-rule="nonzero"/><path fill="#ff66c4" d="M 755.707031 73.40625 C 755.066406 74.296875 754.441406 75.203125 753.800781 76.109375 C 751.84375 78.890625 752.523438 82.738281 755.308594 84.683594 C 758.089844 86.636719 761.9375 85.960938 763.878906 83.175781 C 764.519531 82.273438 765.15625 81.355469 765.785156 80.449219 C 769.671875 74.882812 759.609375 67.839844 755.707031 73.40625 Z M 755.707031 73.40625 " fill-opacity="1" fill-rule="nonzero"/><path fill="#ff66c4" d="M 861.542969 63.726562 C 861.730469 64.621094 861.90625 65.527344 862.089844 66.429688 C 862.742188 69.707031 865.910156 71.820312 869.183594 71.167969 C 872.445312 70.515625 874.578125 67.335938 873.925781 64.074219 C 873.738281 63.167969 873.550781 62.25 873.378906 61.34375 C 872.714844 58.082031 869.542969 55.96875 866.269531 56.621094 C 863.007812 57.273438 860.890625 60.453125 861.542969 63.726562 Z M 861.542969 63.726562 " fill-opacity="1" fill-rule="nonzero"/><path fill="#ff66c4" d="M 780.917969 216.617188 C 779.855469 217.589844 778.789062 218.574219 777.710938 219.546875 C 772.8125 224.03125 780.679688 232.871094 785.699219 228.53125 C 786.804688 227.585938 787.894531 226.640625 788.988281 225.695312 C 791.53125 223.5 791.714844 219.625 789.492188 217.125 C 787.257812 214.609375 783.394531 214.355469 780.917969 216.617188 Z M 780.917969 216.617188 " fill-opacity="1" fill-rule="nonzero"/><path fill="#ff66c4" d="M 941.296875 252.855469 C 940.84375 254.785156 940.378906 256.714844 939.925781 258.632812 C 938.394531 265.074219 949.867188 267.9375 951.546875 261.546875 C 952.050781 259.628906 952.558594 257.714844 953.050781 255.796875 C 953.902344 252.550781 951.890625 249.246094 948.644531 248.449219 C 945.398438 247.636719 942.070312 249.59375 941.296875 252.855469 Z M 941.296875 252.855469 " fill-opacity="1" fill-rule="nonzero"/><path fill="#ff66c4" d="M 1023.296875 8.375 C 1023.789062 7.296875 1024.265625 6.21875 1024.746094 5.128906 C 1026.089844 2.105469 1024.71875 -1.433594 1021.695312 -2.765625 C 1018.675781 -4.109375 1015.136719 -2.753906 1013.789062 0.269531 C 1013.3125 1.347656 1012.832031 2.441406 1012.351562 3.519531 C 1011.007812 6.539062 1012.363281 10.082031 1015.386719 11.425781 C 1018.40625 12.769531 1021.949219 11.398438 1023.296875 8.375 Z M 1023.296875 8.375 " fill-opacity="1" fill-rule="nonzero"/><path fill="#ff66c4" d="M 1047.433594 142.417969 C 1049.230469 142.296875 1051.039062 142.175781 1052.839844 142.058594 C 1056.125 141.84375 1058.601562 138.96875 1058.390625 135.683594 C 1058.164062 132.394531 1055.328125 129.890625 1052.039062 130.101562 C 1050.242188 130.222656 1048.429688 130.34375 1046.632812 130.464844 C 1043.332031 130.691406 1040.855469 133.554688 1041.082031 136.839844 C 1041.296875 140.128906 1044.132812 142.644531 1047.433594 142.417969 Z M 1047.433594 142.417969 " fill-opacity="1" fill-rule="nonzero"/><path fill="#ff66c4" d="M 712.574219 279.011719 C 714.371094 278.292969 716.167969 277.558594 717.964844 276.828125 C 720.800781 275.671875 721.574219 271.984375 720.507812 269.347656 C 719.457031 266.710938 716.367188 264.582031 713.519531 265.699219 C 711.710938 266.417969 709.898438 267.125 708.101562 267.828125 C 705 269.054688 703.507812 272.566406 704.746094 275.65625 C 705.972656 278.746094 709.484375 280.261719 712.574219 279.011719 Z M 712.574219 279.011719 " fill-opacity="1" fill-rule="nonzero"/><path fill="#ff66c4" d="M 669.660156 216.871094 C 669.792969 217.828125 669.941406 218.789062 670.074219 219.746094 C 671.019531 226.375 682.8125 224.914062 682.109375 218.242188 C 682.015625 217.28125 681.90625 216.3125 681.800781 215.355469 C 681.441406 211.984375 678.328125 209.613281 674.972656 210.042969 C 671.617188 210.457031 669.179688 213.527344 669.660156 216.871094 Z M 669.660156 216.871094 " fill-opacity="1" fill-rule="nonzero"/></svg>