<svg xmlns="http://www.w3.org/2000/svg" xmlns:xlink="http://www.w3.org/1999/xlink" width="1024" zoomAndPan="magnify" viewBox="0 0 768 576.75" height="769" preserveAspectRatio="xMidYMid meet" version="1.0"><defs><clipPath id="3d9ac83a77"><path d="M 39.359375 1.394531 L 72.347656 1.394531 L 72.347656 34.378906 L 39.359375 34.378906 Z M 39.359375 1.394531 " clip-rule="nonzero"/></clipPath><clipPath id="ab0bedfeb0"><path d="M 76.015625 18.308594 L 109 18.308594 L 109 51.292969 L 76.015625 51.292969 Z M 76.015625 18.308594 " clip-rule="nonzero"/></clipPath><clipPath id="0c4465f623"><path d="M 112.183594 1.394531 L 145.171875 1.394531 L 145.171875 34.378906 L 112.183594 34.378906 Z M 112.183594 1.394531 " clip-rule="nonzero"/></clipPath><clipPath id="5b22397cef"><path d="M 3.191406 18.308594 L 36.179688 18.308594 L 36.179688 51.292969 L 3.191406 51.292969 Z M 3.191406 18.308594 " clip-rule="nonzero"/></clipPath><clipPath id="4d536133da"><path d="M 194.390625 1.394531 L 227.378906 1.394531 L 227.378906 34.378906 L 194.390625 34.378906 Z M 194.390625 1.394531 " clip-rule="nonzero"/></clipPath><clipPath id="c8634169a4"><path d="M 231.046875 18.308594 L 264.035156 18.308594 L 264.035156 51.292969 L 231.046875 51.292969 Z M 231.046875 18.308594 " clip-rule="nonzero"/></clipPath><clipPath id="6ce128e3c2"><path d="M 267.214844 1.394531 L 300.203125 1.394531 L 300.203125 34.378906 L 267.214844 34.378906 Z M 267.214844 1.394531 " clip-rule="nonzero"/></clipPath><clipPath id="a7f6d9459f"><path d="M 158.222656 18.308594 L 191.210938 18.308594 L 191.210938 51.292969 L 158.222656 51.292969 Z M 158.222656 18.308594 " clip-rule="nonzero"/></clipPath><clipPath id="41b2e044c1"><path d="M 349.117188 1.394531 L 382.105469 1.394531 L 382.105469 34.378906 L 349.117188 34.378906 Z M 349.117188 1.394531 " clip-rule="nonzero"/></clipPath><clipPath id="6bd5d31e01"><path d="M 385.773438 18.308594 L 418.757812 18.308594 L 418.757812 51.292969 L 385.773438 51.292969 Z M 385.773438 18.308594 " clip-rule="nonzero"/></clipPath><clipPath id="c64b90fda7"><path d="M 421.941406 1.394531 L 454.925781 1.394531 L 454.925781 34.378906 L 421.941406 34.378906 Z M 421.941406 1.394531 " clip-rule="nonzero"/></clipPath><clipPath id="c0e4b5246d"><path d="M 312.949219 18.308594 L 345.9375 18.308594 L 345.9375 51.292969 L 312.949219 51.292969 Z M 312.949219 18.308594 " clip-rule="nonzero"/></clipPath><clipPath id="cc4ab46dc1"><path d="M 504.367188 0 L 537.351562 0 L 537.351562 32.984375 L 504.367188 32.984375 Z M 504.367188 0 " clip-rule="nonzero"/></clipPath><clipPath id="4955453cb7"><path d="M 541.019531 16.914062 L 574.007812 16.914062 L 574.007812 49.898438 L 541.019531 49.898438 Z M 541.019531 16.914062 " clip-rule="nonzero"/></clipPath><clipPath id="6a63f3aecd"><path d="M 577.1875 0 L 610.175781 0 L 610.175781 32.984375 L 577.1875 32.984375 Z M 577.1875 0 " clip-rule="nonzero"/></clipPath><clipPath id="02ca3059d8"><path d="M 468.199219 16.914062 L 501.183594 16.914062 L 501.183594 49.898438 L 468.199219 49.898438 Z M 468.199219 16.914062 " clip-rule="nonzero"/></clipPath><clipPath id="b55a2afd5b"><path d="M 658.839844 0 L 691.828125 0 L 691.828125 32.984375 L 658.839844 32.984375 Z M 658.839844 0 " clip-rule="nonzero"/></clipPath><clipPath id="c0b59f559c"><path d="M 695.496094 16.914062 L 728.480469 16.914062 L 728.480469 49.898438 L 695.496094 49.898438 Z M 695.496094 16.914062 " clip-rule="nonzero"/></clipPath><clipPath id="a9e482e44f"><path d="M 731.664062 0 L 764.648438 0 L 764.648438 32.984375 L 731.664062 32.984375 Z M 731.664062 0 " clip-rule="nonzero"/></clipPath><clipPath id="bacfbc6656"><path d="M 622.671875 16.914062 L 655.660156 16.914062 L 655.660156 49.898438 L 622.671875 49.898438 Z M 622.671875 16.914062 " clip-rule="nonzero"/></clipPath></defs><g clip-path="url(#3d9ac83a77)"><path fill="#ffd166" d="M 65.761719 22.671875 C 63.582031 26.066406 59.878906 28.097656 55.855469 28.097656 C 51.828125 28.097656 48.125 26.066406 45.949219 22.671875 C 45.714844 22.304688 45.820312 21.820312 46.183594 21.585938 C 46.550781 21.351562 47.035156 21.457031 47.269531 21.824219 C 49.15625 24.769531 52.367188 26.527344 55.855469 26.527344 C 59.339844 26.527344 62.550781 24.769531 64.4375 21.824219 C 64.671875 21.457031 65.160156 21.351562 65.523438 21.585938 C 65.886719 21.820312 65.996094 22.304688 65.761719 22.671875 Z M 49.0625 11.128906 C 50.242188 11.128906 51.203125 12.089844 51.203125 13.269531 C 51.203125 14.453125 50.242188 15.414062 49.0625 15.414062 C 47.878906 15.414062 46.917969 14.453125 46.917969 13.269531 C 46.917969 12.089844 47.878906 11.128906 49.0625 11.128906 Z M 62.648438 11.128906 C 63.832031 11.128906 64.789062 12.089844 64.789062 13.269531 C 64.789062 14.453125 63.832031 15.414062 62.648438 15.414062 C 61.464844 15.414062 60.507812 14.453125 60.507812 13.269531 C 60.507812 12.089844 61.464844 11.128906 62.648438 11.128906 Z M 55.855469 1.394531 C 46.761719 1.394531 39.363281 8.792969 39.363281 17.886719 C 39.363281 26.980469 46.761719 34.378906 55.855469 34.378906 C 64.949219 34.378906 72.347656 26.980469 72.347656 17.886719 C 72.347656 8.792969 64.949219 1.394531 55.855469 1.394531 " fill-opacity="1" fill-rule="nonzero"/></g><g clip-path="url(#ab0bedfeb0)"><path fill="#ef476f" d="M 102.179688 44.886719 C 102.046875 44.96875 101.898438 45.011719 101.753906 45.011719 C 101.496094 45.011719 101.242188 44.882812 101.09375 44.648438 C 99.207031 41.703125 95.996094 39.945312 92.507812 39.945312 C 89.023438 39.945312 85.8125 41.703125 83.925781 44.648438 C 83.691406 45.015625 83.203125 45.121094 82.839844 44.886719 C 82.476562 44.652344 82.367188 44.167969 82.601562 43.800781 C 84.78125 40.402344 88.484375 38.375 92.507812 38.375 C 96.535156 38.375 100.238281 40.402344 102.414062 43.800781 C 102.648438 44.167969 102.542969 44.652344 102.179688 44.886719 Z M 85.714844 28.042969 C 86.898438 28.042969 87.855469 29.003906 87.855469 30.183594 C 87.855469 31.367188 86.898438 32.328125 85.714844 32.328125 C 84.535156 32.328125 83.574219 31.367188 83.574219 30.183594 C 83.574219 29.003906 84.535156 28.042969 85.714844 28.042969 Z M 99.304688 28.042969 C 100.484375 28.042969 101.445312 29.003906 101.445312 30.183594 C 101.445312 31.367188 100.484375 32.328125 99.304688 32.328125 C 98.121094 32.328125 97.160156 31.367188 97.160156 30.183594 C 97.160156 29.003906 98.121094 28.042969 99.304688 28.042969 Z M 92.507812 18.308594 C 83.414062 18.308594 76.015625 25.707031 76.015625 34.800781 C 76.015625 43.894531 83.414062 51.292969 92.507812 51.292969 C 101.601562 51.292969 109 43.894531 109 34.800781 C 109 25.707031 101.601562 18.308594 92.507812 18.308594 " fill-opacity="1" fill-rule="nonzero"/></g><g clip-path="url(#0c4465f623)"><path fill="#06d6a0" d="M 140.105469 20.703125 C 138.808594 25.980469 134.109375 29.667969 128.675781 29.667969 C 123.246094 29.667969 118.546875 25.980469 117.25 20.703125 C 117.191406 20.46875 117.246094 20.21875 117.394531 20.03125 C 117.542969 19.839844 117.769531 19.730469 118.011719 19.730469 L 139.34375 19.730469 C 139.585938 19.730469 139.8125 19.839844 139.960938 20.03125 C 140.109375 20.21875 140.164062 20.46875 140.105469 20.703125 Z M 121.882812 11.128906 C 123.066406 11.128906 124.023438 12.089844 124.023438 13.269531 C 124.023438 14.453125 123.066406 15.414062 121.882812 15.414062 C 120.703125 15.414062 119.742188 14.453125 119.742188 13.269531 C 119.742188 12.089844 120.703125 11.128906 121.882812 11.128906 Z M 135.46875 11.128906 C 136.652344 11.128906 137.613281 12.089844 137.613281 13.269531 C 137.613281 14.453125 136.652344 15.414062 135.46875 15.414062 C 134.289062 15.414062 133.328125 14.453125 133.328125 13.269531 C 133.328125 12.089844 134.289062 11.128906 135.46875 11.128906 Z M 128.675781 1.394531 C 119.582031 1.394531 112.183594 8.792969 112.183594 17.886719 C 112.183594 26.980469 119.582031 34.378906 128.675781 34.378906 C 137.769531 34.378906 145.171875 26.980469 145.171875 17.886719 C 145.171875 8.792969 137.769531 1.394531 128.675781 1.394531 " fill-opacity="1" fill-rule="nonzero"/></g><path fill="#06d6a0" d="M 128.675781 28.097656 C 133.042969 28.097656 136.863281 25.347656 138.289062 21.300781 L 119.0625 21.300781 C 120.492188 25.347656 124.3125 28.097656 128.675781 28.097656 " fill-opacity="1" fill-rule="nonzero"/><g clip-path="url(#5b22397cef)"><path fill="#118ab2" d="M 26.480469 32.328125 C 25.296875 32.328125 24.339844 31.367188 24.339844 30.183594 C 24.339844 29.003906 25.296875 28.042969 26.480469 28.042969 C 27.664062 28.042969 28.621094 29.003906 28.621094 30.183594 C 28.621094 31.367188 27.664062 32.328125 26.480469 32.328125 Z M 27.296875 42.195312 C 27.140625 42.382812 26.917969 42.476562 26.691406 42.476562 C 26.515625 42.476562 26.339844 42.417969 26.191406 42.296875 C 24.371094 40.78125 22.058594 39.945312 19.6875 39.945312 C 17.3125 39.945312 15.003906 40.78125 13.179688 42.296875 C 12.847656 42.574219 12.351562 42.527344 12.074219 42.195312 C 11.796875 41.863281 11.84375 41.367188 12.175781 41.089844 C 14.277344 39.339844 16.945312 38.375 19.6875 38.375 C 22.425781 38.375 25.09375 39.339844 27.195312 41.089844 C 27.53125 41.367188 27.574219 41.863281 27.296875 42.195312 Z M 12.890625 33.132812 C 12.890625 33.132812 14.296875 35.289062 14.296875 36.066406 C 14.296875 36.839844 13.667969 37.46875 12.890625 37.46875 C 12.117188 37.46875 11.488281 36.839844 11.488281 36.066406 C 11.488281 35.289062 12.890625 33.132812 12.890625 33.132812 Z M 10.75 30.183594 C 10.75 29.003906 11.710938 28.042969 12.890625 28.042969 C 14.074219 28.042969 15.035156 29.003906 15.035156 30.183594 C 15.035156 31.367188 14.074219 32.328125 12.890625 32.328125 C 11.710938 32.328125 10.75 31.367188 10.75 30.183594 Z M 19.6875 18.308594 C 10.59375 18.308594 3.195312 25.707031 3.195312 34.800781 C 3.195312 43.894531 10.59375 51.292969 19.6875 51.292969 C 28.78125 51.292969 36.179688 43.894531 36.179688 34.800781 C 36.179688 25.707031 28.78125 18.308594 19.6875 18.308594 " fill-opacity="1" fill-rule="nonzero"/></g><g clip-path="url(#4d536133da)"><path fill="#ffd166" d="M 220.792969 22.671875 C 218.613281 26.066406 214.910156 28.097656 210.886719 28.097656 C 206.859375 28.097656 203.15625 26.066406 200.980469 22.671875 C 200.746094 22.304688 200.851562 21.820312 201.214844 21.585938 C 201.582031 21.351562 202.066406 21.457031 202.300781 21.824219 C 204.1875 24.769531 207.398438 26.527344 210.886719 26.527344 C 214.371094 26.527344 217.582031 24.769531 219.46875 21.824219 C 219.703125 21.457031 220.191406 21.351562 220.554688 21.585938 C 220.917969 21.820312 221.027344 22.304688 220.792969 22.671875 Z M 204.09375 11.128906 C 205.273438 11.128906 206.234375 12.089844 206.234375 13.269531 C 206.234375 14.453125 205.273438 15.414062 204.09375 15.414062 C 202.910156 15.414062 201.949219 14.453125 201.949219 13.269531 C 201.949219 12.089844 202.910156 11.128906 204.09375 11.128906 Z M 217.679688 11.128906 C 218.863281 11.128906 219.820312 12.089844 219.820312 13.269531 C 219.820312 14.453125 218.863281 15.414062 217.679688 15.414062 C 216.496094 15.414062 215.539062 14.453125 215.539062 13.269531 C 215.539062 12.089844 216.496094 11.128906 217.679688 11.128906 Z M 210.886719 1.394531 C 201.792969 1.394531 194.394531 8.792969 194.394531 17.886719 C 194.394531 26.980469 201.792969 34.378906 210.886719 34.378906 C 219.980469 34.378906 227.378906 26.980469 227.378906 17.886719 C 227.378906 8.792969 219.980469 1.394531 210.886719 1.394531 " fill-opacity="1" fill-rule="nonzero"/></g><g clip-path="url(#c8634169a4)"><path fill="#ef476f" d="M 257.210938 44.886719 C 257.078125 44.96875 256.929688 45.011719 256.785156 45.011719 C 256.527344 45.011719 256.273438 44.882812 256.125 44.648438 C 254.238281 41.703125 251.027344 39.945312 247.539062 39.945312 C 244.054688 39.945312 240.84375 41.703125 238.957031 44.648438 C 238.722656 45.015625 238.234375 45.121094 237.871094 44.886719 C 237.507812 44.652344 237.398438 44.167969 237.632812 43.800781 C 239.8125 40.402344 243.515625 38.375 247.539062 38.375 C 251.566406 38.375 255.269531 40.402344 257.445312 43.800781 C 257.679688 44.167969 257.574219 44.652344 257.210938 44.886719 Z M 240.746094 28.042969 C 241.929688 28.042969 242.886719 29.003906 242.886719 30.183594 C 242.886719 31.367188 241.929688 32.328125 240.746094 32.328125 C 239.5625 32.328125 238.605469 31.367188 238.605469 30.183594 C 238.605469 29.003906 239.5625 28.042969 240.746094 28.042969 Z M 254.335938 28.042969 C 255.515625 28.042969 256.476562 29.003906 256.476562 30.183594 C 256.476562 31.367188 255.515625 32.328125 254.335938 32.328125 C 253.152344 32.328125 252.191406 31.367188 252.191406 30.183594 C 252.191406 29.003906 253.152344 28.042969 254.335938 28.042969 Z M 247.539062 18.308594 C 238.445312 18.308594 231.046875 25.707031 231.046875 34.800781 C 231.046875 43.894531 238.445312 51.292969 247.539062 51.292969 C 256.632812 51.292969 264.03125 43.894531 264.03125 34.800781 C 264.03125 25.707031 256.632812 18.308594 247.539062 18.308594 " fill-opacity="1" fill-rule="nonzero"/></g><g clip-path="url(#6ce128e3c2)"><path fill="#06d6a0" d="M 295.136719 20.703125 C 293.839844 25.980469 289.140625 29.667969 283.707031 29.667969 C 278.277344 29.667969 273.578125 25.980469 272.28125 20.703125 C 272.222656 20.46875 272.277344 20.21875 272.425781 20.03125 C 272.574219 19.839844 272.800781 19.730469 273.042969 19.730469 L 294.375 19.730469 C 294.617188 19.730469 294.84375 19.839844 294.992188 20.03125 C 295.140625 20.21875 295.195312 20.46875 295.136719 20.703125 Z M 276.914062 11.128906 C 278.097656 11.128906 279.054688 12.089844 279.054688 13.269531 C 279.054688 14.453125 278.097656 15.414062 276.914062 15.414062 C 275.730469 15.414062 274.773438 14.453125 274.773438 13.269531 C 274.773438 12.089844 275.730469 11.128906 276.914062 11.128906 Z M 290.5 11.128906 C 291.683594 11.128906 292.644531 12.089844 292.644531 13.269531 C 292.644531 14.453125 291.683594 15.414062 290.5 15.414062 C 289.320312 15.414062 288.359375 14.453125 288.359375 13.269531 C 288.359375 12.089844 289.320312 11.128906 290.5 11.128906 Z M 283.707031 1.394531 C 274.613281 1.394531 267.214844 8.792969 267.214844 17.886719 C 267.214844 26.980469 274.613281 34.378906 283.707031 34.378906 C 292.800781 34.378906 300.203125 26.980469 300.203125 17.886719 C 300.203125 8.792969 292.800781 1.394531 283.707031 1.394531 " fill-opacity="1" fill-rule="nonzero"/></g><path fill="#06d6a0" d="M 283.707031 28.097656 C 288.074219 28.097656 291.894531 25.347656 293.320312 21.300781 L 274.09375 21.300781 C 275.523438 25.347656 279.34375 28.097656 283.707031 28.097656 " fill-opacity="1" fill-rule="nonzero"/><g clip-path="url(#a7f6d9459f)"><path fill="#118ab2" d="M 181.511719 32.328125 C 180.328125 32.328125 179.371094 31.367188 179.371094 30.183594 C 179.371094 29.003906 180.328125 28.042969 181.511719 28.042969 C 182.695312 28.042969 183.652344 29.003906 183.652344 30.183594 C 183.652344 31.367188 182.695312 32.328125 181.511719 32.328125 Z M 182.328125 42.195312 C 182.171875 42.382812 181.949219 42.476562 181.722656 42.476562 C 181.546875 42.476562 181.371094 42.417969 181.222656 42.296875 C 179.402344 40.78125 177.089844 39.945312 174.71875 39.945312 C 172.34375 39.945312 170.035156 40.78125 168.210938 42.296875 C 167.878906 42.574219 167.382812 42.527344 167.105469 42.195312 C 166.828125 41.863281 166.875 41.367188 167.207031 41.089844 C 169.308594 39.339844 171.976562 38.375 174.71875 38.375 C 177.457031 38.375 180.125 39.339844 182.226562 41.089844 C 182.558594 41.367188 182.605469 41.863281 182.328125 42.195312 Z M 167.921875 33.132812 C 167.921875 33.132812 169.328125 35.289062 169.328125 36.066406 C 169.328125 36.839844 168.699219 37.46875 167.921875 37.46875 C 167.148438 37.46875 166.519531 36.839844 166.519531 36.066406 C 166.519531 35.289062 167.921875 33.132812 167.921875 33.132812 Z M 165.78125 30.183594 C 165.78125 29.003906 166.742188 28.042969 167.921875 28.042969 C 169.105469 28.042969 170.066406 29.003906 170.066406 30.183594 C 170.066406 31.367188 169.105469 32.328125 167.921875 32.328125 C 166.742188 32.328125 165.78125 31.367188 165.78125 30.183594 Z M 174.71875 18.308594 C 165.625 18.308594 158.226562 25.707031 158.226562 34.800781 C 158.226562 43.894531 165.625 51.292969 174.71875 51.292969 C 183.8125 51.292969 191.210938 43.894531 191.210938 34.800781 C 191.210938 25.707031 183.8125 18.308594 174.71875 18.308594 " fill-opacity="1" fill-rule="nonzero"/></g><g clip-path="url(#41b2e044c1)"><path fill="#ffd166" d="M 375.519531 22.671875 C 373.339844 26.066406 369.636719 28.097656 365.613281 28.097656 C 361.585938 28.097656 357.882812 26.066406 355.707031 22.671875 C 355.472656 22.304688 355.578125 21.820312 355.941406 21.585938 C 356.308594 21.351562 356.792969 21.457031 357.027344 21.824219 C 358.914062 24.769531 362.125 26.527344 365.613281 26.527344 C 369.097656 26.527344 372.308594 24.769531 374.195312 21.824219 C 374.429688 21.457031 374.914062 21.351562 375.28125 21.585938 C 375.644531 21.820312 375.753906 22.304688 375.519531 22.671875 Z M 358.816406 11.128906 C 360 11.128906 360.960938 12.089844 360.960938 13.269531 C 360.960938 14.453125 360 15.414062 358.816406 15.414062 C 357.636719 15.414062 356.675781 14.453125 356.675781 13.269531 C 356.675781 12.089844 357.636719 11.128906 358.816406 11.128906 Z M 372.40625 11.128906 C 373.585938 11.128906 374.546875 12.089844 374.546875 13.269531 C 374.546875 14.453125 373.585938 15.414062 372.40625 15.414062 C 371.222656 15.414062 370.261719 14.453125 370.261719 13.269531 C 370.261719 12.089844 371.222656 11.128906 372.40625 11.128906 Z M 365.613281 1.394531 C 356.519531 1.394531 349.117188 8.792969 349.117188 17.886719 C 349.117188 26.980469 356.519531 34.378906 365.613281 34.378906 C 374.707031 34.378906 382.105469 26.980469 382.105469 17.886719 C 382.105469 8.792969 374.707031 1.394531 365.613281 1.394531 " fill-opacity="1" fill-rule="nonzero"/></g><g clip-path="url(#6bd5d31e01)"><path fill="#ef476f" d="M 411.9375 44.886719 C 411.804688 44.96875 411.65625 45.011719 411.511719 45.011719 C 411.253906 45.011719 411 44.882812 410.851562 44.648438 C 408.960938 41.703125 405.753906 39.945312 402.265625 39.945312 C 398.78125 39.945312 395.570312 41.703125 393.683594 44.648438 C 393.449219 45.015625 392.960938 45.121094 392.597656 44.886719 C 392.230469 44.652344 392.125 44.167969 392.359375 43.800781 C 394.539062 40.402344 398.242188 38.375 402.265625 38.375 C 406.292969 38.375 409.996094 40.402344 412.171875 43.800781 C 412.40625 44.167969 412.300781 44.652344 411.9375 44.886719 Z M 395.472656 28.042969 C 396.65625 28.042969 397.613281 29.003906 397.613281 30.183594 C 397.613281 31.367188 396.65625 32.328125 395.472656 32.328125 C 394.289062 32.328125 393.332031 31.367188 393.332031 30.183594 C 393.332031 29.003906 394.289062 28.042969 395.472656 28.042969 Z M 409.058594 28.042969 C 410.242188 28.042969 411.203125 29.003906 411.203125 30.183594 C 411.203125 31.367188 410.242188 32.328125 409.058594 32.328125 C 407.878906 32.328125 406.917969 31.367188 406.917969 30.183594 C 406.917969 29.003906 407.878906 28.042969 409.058594 28.042969 Z M 402.265625 18.308594 C 393.171875 18.308594 385.773438 25.707031 385.773438 34.800781 C 385.773438 43.894531 393.171875 51.292969 402.265625 51.292969 C 411.359375 51.292969 418.757812 43.894531 418.757812 34.800781 C 418.757812 25.707031 411.359375 18.308594 402.265625 18.308594 " fill-opacity="1" fill-rule="nonzero"/></g><g clip-path="url(#c64b90fda7)"><path fill="#06d6a0" d="M 449.863281 20.703125 C 448.566406 25.980469 443.867188 29.667969 438.433594 29.667969 C 433.003906 29.667969 428.304688 25.980469 427.007812 20.703125 C 426.949219 20.46875 427 20.21875 427.152344 20.03125 C 427.300781 19.839844 427.527344 19.730469 427.769531 19.730469 L 449.101562 19.730469 C 449.34375 19.730469 449.570312 19.839844 449.71875 20.03125 C 449.867188 20.21875 449.921875 20.46875 449.863281 20.703125 Z M 431.640625 11.128906 C 432.824219 11.128906 433.78125 12.089844 433.78125 13.269531 C 433.78125 14.453125 432.824219 15.414062 431.640625 15.414062 C 430.457031 15.414062 429.5 14.453125 429.5 13.269531 C 429.5 12.089844 430.457031 11.128906 431.640625 11.128906 Z M 445.226562 11.128906 C 446.410156 11.128906 447.371094 12.089844 447.371094 13.269531 C 447.371094 14.453125 446.410156 15.414062 445.226562 15.414062 C 444.046875 15.414062 443.085938 14.453125 443.085938 13.269531 C 443.085938 12.089844 444.046875 11.128906 445.226562 11.128906 Z M 438.433594 1.394531 C 429.339844 1.394531 421.941406 8.792969 421.941406 17.886719 C 421.941406 26.980469 429.339844 34.378906 438.433594 34.378906 C 447.527344 34.378906 454.925781 26.980469 454.925781 17.886719 C 454.925781 8.792969 447.527344 1.394531 438.433594 1.394531 " fill-opacity="1" fill-rule="nonzero"/></g><path fill="#06d6a0" d="M 438.433594 28.097656 C 442.800781 28.097656 446.621094 25.347656 448.046875 21.300781 L 428.820312 21.300781 C 430.25 25.347656 434.070312 28.097656 438.433594 28.097656 " fill-opacity="1" fill-rule="nonzero"/><g clip-path="url(#c0e4b5246d)"><path fill="#118ab2" d="M 336.238281 32.328125 C 335.054688 32.328125 334.09375 31.367188 334.09375 30.183594 C 334.09375 29.003906 335.054688 28.042969 336.238281 28.042969 C 337.417969 28.042969 338.378906 29.003906 338.378906 30.183594 C 338.378906 31.367188 337.417969 32.328125 336.238281 32.328125 Z M 337.054688 42.195312 C 336.898438 42.382812 336.675781 42.476562 336.449219 42.476562 C 336.273438 42.476562 336.097656 42.417969 335.949219 42.296875 C 334.128906 40.78125 331.816406 39.945312 329.441406 39.945312 C 327.070312 39.945312 324.757812 40.78125 322.9375 42.296875 C 322.605469 42.574219 322.109375 42.527344 321.832031 42.195312 C 321.554688 41.863281 321.597656 41.367188 321.933594 41.089844 C 324.035156 39.339844 326.703125 38.375 329.441406 38.375 C 332.183594 38.375 334.851562 39.339844 336.953125 41.089844 C 337.285156 41.367188 337.332031 41.863281 337.054688 42.195312 Z M 322.648438 33.132812 C 322.648438 33.132812 324.054688 35.289062 324.054688 36.066406 C 324.054688 36.839844 323.425781 37.46875 322.648438 37.46875 C 321.875 37.46875 321.246094 36.839844 321.246094 36.066406 C 321.246094 35.289062 322.648438 33.132812 322.648438 33.132812 Z M 320.507812 30.183594 C 320.507812 29.003906 321.46875 28.042969 322.648438 28.042969 C 323.832031 28.042969 324.792969 29.003906 324.792969 30.183594 C 324.792969 31.367188 323.832031 32.328125 322.648438 32.328125 C 321.46875 32.328125 320.507812 31.367188 320.507812 30.183594 Z M 329.441406 18.308594 C 320.347656 18.308594 312.949219 25.707031 312.949219 34.800781 C 312.949219 43.894531 320.347656 51.292969 329.441406 51.292969 C 338.539062 51.292969 345.9375 43.894531 345.9375 34.800781 C 345.9375 25.707031 338.539062 18.308594 329.441406 18.308594 " fill-opacity="1" fill-rule="nonzero"/></g><g clip-path="url(#cc4ab46dc1)"><path fill="#ffd166" d="M 530.765625 21.277344 C 528.585938 24.675781 524.882812 26.703125 520.859375 26.703125 C 516.832031 26.703125 513.128906 24.675781 510.953125 21.277344 C 510.71875 20.910156 510.824219 20.425781 511.1875 20.191406 C 511.554688 19.957031 512.039062 20.066406 512.273438 20.429688 C 514.164062 23.375 517.371094 25.132812 520.859375 25.132812 C 524.347656 25.132812 527.554688 23.375 529.441406 20.429688 C 529.675781 20.0625 530.164062 19.957031 530.527344 20.191406 C 530.894531 20.425781 531 20.910156 530.765625 21.277344 Z M 514.066406 9.734375 C 515.246094 9.734375 516.207031 10.695312 516.207031 11.875 C 516.207031 13.058594 515.246094 14.019531 514.066406 14.019531 C 512.882812 14.019531 511.921875 13.058594 511.921875 11.875 C 511.921875 10.695312 512.882812 9.734375 514.066406 9.734375 Z M 527.652344 9.734375 C 528.835938 9.734375 529.792969 10.695312 529.792969 11.875 C 529.792969 13.058594 528.835938 14.019531 527.652344 14.019531 C 526.46875 14.019531 525.511719 13.058594 525.511719 11.875 C 525.511719 10.695312 526.46875 9.734375 527.652344 9.734375 Z M 520.859375 0 C 511.765625 0 504.367188 7.398438 504.367188 16.492188 C 504.367188 25.585938 511.765625 32.984375 520.859375 32.984375 C 529.953125 32.984375 537.351562 25.585938 537.351562 16.492188 C 537.351562 7.398438 529.953125 0 520.859375 0 " fill-opacity="1" fill-rule="nonzero"/></g><g clip-path="url(#4955453cb7)"><path fill="#ef476f" d="M 567.183594 43.492188 C 567.050781 43.578125 566.90625 43.617188 566.757812 43.617188 C 566.5 43.617188 566.246094 43.488281 566.097656 43.253906 C 564.210938 40.308594 561 38.550781 557.515625 38.550781 C 554.027344 38.550781 550.816406 40.308594 548.929688 43.253906 C 548.695312 43.621094 548.207031 43.726562 547.84375 43.492188 C 547.480469 43.257812 547.371094 42.773438 547.605469 42.40625 C 549.785156 39.011719 553.488281 36.980469 557.515625 36.980469 C 561.539062 36.980469 565.242188 39.011719 567.421875 42.40625 C 567.652344 42.773438 567.546875 43.257812 567.183594 43.492188 Z M 550.71875 26.648438 C 551.902344 26.648438 552.863281 27.609375 552.863281 28.789062 C 552.863281 29.972656 551.902344 30.933594 550.71875 30.933594 C 549.539062 30.933594 548.578125 29.972656 548.578125 28.789062 C 548.578125 27.609375 549.539062 26.648438 550.71875 26.648438 Z M 564.308594 26.648438 C 565.488281 26.648438 566.449219 27.609375 566.449219 28.789062 C 566.449219 29.972656 565.488281 30.933594 564.308594 30.933594 C 563.125 30.933594 562.164062 29.972656 562.164062 28.789062 C 562.164062 27.609375 563.125 26.648438 564.308594 26.648438 Z M 557.515625 16.914062 C 548.417969 16.914062 541.019531 24.3125 541.019531 33.40625 C 541.019531 42.5 548.417969 49.898438 557.515625 49.898438 C 566.609375 49.898438 574.007812 42.5 574.007812 33.40625 C 574.007812 24.3125 566.609375 16.914062 557.515625 16.914062 " fill-opacity="1" fill-rule="nonzero"/></g><g clip-path="url(#6a63f3aecd)"><path fill="#06d6a0" d="M 605.109375 19.308594 C 603.8125 24.585938 599.113281 28.273438 593.679688 28.273438 C 588.25 28.273438 583.550781 24.585938 582.253906 19.308594 C 582.195312 19.074219 582.25 18.824219 582.398438 18.636719 C 582.546875 18.445312 582.773438 18.335938 583.015625 18.335938 L 604.347656 18.335938 C 604.589844 18.335938 604.816406 18.445312 604.964844 18.636719 C 605.113281 18.824219 605.167969 19.074219 605.109375 19.308594 Z M 586.886719 9.734375 C 588.070312 9.734375 589.03125 10.695312 589.03125 11.875 C 589.03125 13.058594 588.070312 14.019531 586.886719 14.019531 C 585.707031 14.019531 584.746094 13.058594 584.746094 11.875 C 584.746094 10.695312 585.707031 9.734375 586.886719 9.734375 Z M 600.476562 9.734375 C 601.65625 9.734375 602.617188 10.695312 602.617188 11.875 C 602.617188 13.058594 601.65625 14.019531 600.476562 14.019531 C 599.292969 14.019531 598.332031 13.058594 598.332031 11.875 C 598.332031 10.695312 599.292969 9.734375 600.476562 9.734375 Z M 593.679688 0 C 584.585938 0 577.1875 7.398438 577.1875 16.492188 C 577.1875 25.585938 584.585938 32.984375 593.679688 32.984375 C 602.777344 32.984375 610.175781 25.585938 610.175781 16.492188 C 610.175781 7.398438 602.777344 0 593.679688 0 " fill-opacity="1" fill-rule="nonzero"/></g><path fill="#06d6a0" d="M 593.679688 26.703125 C 598.046875 26.703125 601.867188 23.953125 603.292969 19.90625 L 584.070312 19.90625 C 585.496094 23.953125 589.316406 26.703125 593.679688 26.703125 " fill-opacity="1" fill-rule="nonzero"/><g clip-path="url(#02ca3059d8)"><path fill="#118ab2" d="M 491.484375 30.933594 C 490.300781 30.933594 489.34375 29.972656 489.34375 28.789062 C 489.34375 27.609375 490.300781 26.648438 491.484375 26.648438 C 492.667969 26.648438 493.625 27.609375 493.625 28.789062 C 493.625 29.972656 492.667969 30.933594 491.484375 30.933594 Z M 492.300781 40.800781 C 492.148438 40.988281 491.921875 41.085938 491.699219 41.085938 C 491.519531 41.085938 491.34375 41.023438 491.195312 40.902344 C 489.375 39.386719 487.0625 38.550781 484.691406 38.550781 C 482.316406 38.550781 480.007812 39.386719 478.183594 40.902344 C 477.851562 41.179688 477.355469 41.136719 477.078125 40.800781 C 476.800781 40.46875 476.847656 39.972656 477.179688 39.695312 C 479.285156 37.945312 481.949219 36.980469 484.691406 36.980469 C 487.429688 36.980469 490.097656 37.945312 492.199219 39.695312 C 492.535156 39.972656 492.578125 40.46875 492.300781 40.800781 Z M 477.898438 31.738281 C 477.898438 31.738281 479.300781 33.894531 479.300781 34.671875 C 479.300781 35.445312 478.671875 36.074219 477.898438 36.074219 C 477.121094 36.074219 476.492188 35.445312 476.492188 34.671875 C 476.492188 33.894531 477.898438 31.738281 477.898438 31.738281 Z M 475.753906 28.789062 C 475.753906 27.609375 476.714844 26.648438 477.898438 26.648438 C 479.078125 26.648438 480.039062 27.609375 480.039062 28.789062 C 480.039062 29.972656 479.078125 30.933594 477.898438 30.933594 C 476.714844 30.933594 475.753906 29.972656 475.753906 28.789062 Z M 484.691406 16.914062 C 475.597656 16.914062 468.199219 24.3125 468.199219 33.40625 C 468.199219 42.5 475.597656 49.898438 484.691406 49.898438 C 493.785156 49.898438 501.183594 42.5 501.183594 33.40625 C 501.183594 24.3125 493.785156 16.914062 484.691406 16.914062 " fill-opacity="1" fill-rule="nonzero"/></g><g clip-path="url(#b55a2afd5b)"><path fill="#ffd166" d="M 685.242188 21.277344 C 683.0625 24.675781 679.359375 26.703125 675.335938 26.703125 C 671.308594 26.703125 667.605469 24.675781 665.425781 21.277344 C 665.195312 20.910156 665.300781 20.425781 665.664062 20.191406 C 666.03125 19.957031 666.515625 20.066406 666.75 20.429688 C 668.636719 23.375 671.847656 25.132812 675.335938 25.132812 C 678.820312 25.132812 682.03125 23.375 683.917969 20.429688 C 684.152344 20.0625 684.636719 19.957031 685.003906 20.191406 C 685.367188 20.425781 685.476562 20.910156 685.242188 21.277344 Z M 668.539062 9.734375 C 669.722656 9.734375 670.683594 10.695312 670.683594 11.875 C 670.683594 13.058594 669.722656 14.019531 668.539062 14.019531 C 667.359375 14.019531 666.398438 13.058594 666.398438 11.875 C 666.398438 10.695312 667.359375 9.734375 668.539062 9.734375 Z M 682.128906 9.734375 C 683.308594 9.734375 684.269531 10.695312 684.269531 11.875 C 684.269531 13.058594 683.308594 14.019531 682.128906 14.019531 C 680.945312 14.019531 679.984375 13.058594 679.984375 11.875 C 679.984375 10.695312 680.945312 9.734375 682.128906 9.734375 Z M 675.335938 0 C 666.238281 0 658.839844 7.398438 658.839844 16.492188 C 658.839844 25.585938 666.238281 32.984375 675.335938 32.984375 C 684.429688 32.984375 691.828125 25.585938 691.828125 16.492188 C 691.828125 7.398438 684.429688 0 675.335938 0 " fill-opacity="1" fill-rule="nonzero"/></g><g clip-path="url(#c0b59f559c)"><path fill="#ef476f" d="M 721.660156 43.492188 C 721.527344 43.578125 721.378906 43.617188 721.234375 43.617188 C 720.976562 43.617188 720.722656 43.488281 720.574219 43.253906 C 718.683594 40.308594 715.476562 38.550781 711.988281 38.550781 C 708.503906 38.550781 705.292969 40.308594 703.40625 43.253906 C 703.171875 43.621094 702.683594 43.726562 702.320312 43.492188 C 701.953125 43.257812 701.847656 42.773438 702.082031 42.40625 C 704.261719 39.011719 707.964844 36.980469 711.988281 36.980469 C 716.015625 36.980469 719.71875 39.011719 721.894531 42.40625 C 722.128906 42.773438 722.023438 43.257812 721.660156 43.492188 Z M 705.195312 26.648438 C 706.378906 26.648438 707.335938 27.609375 707.335938 28.789062 C 707.335938 29.972656 706.378906 30.933594 705.195312 30.933594 C 704.011719 30.933594 703.054688 29.972656 703.054688 28.789062 C 703.054688 27.609375 704.011719 26.648438 705.195312 26.648438 Z M 718.78125 26.648438 C 719.964844 26.648438 720.925781 27.609375 720.925781 28.789062 C 720.925781 29.972656 719.964844 30.933594 718.78125 30.933594 C 717.601562 30.933594 716.640625 29.972656 716.640625 28.789062 C 716.640625 27.609375 717.601562 26.648438 718.78125 26.648438 Z M 711.988281 16.914062 C 702.894531 16.914062 695.496094 24.3125 695.496094 33.40625 C 695.496094 42.5 702.894531 49.898438 711.988281 49.898438 C 721.082031 49.898438 728.480469 42.5 728.480469 33.40625 C 728.480469 24.3125 721.082031 16.914062 711.988281 16.914062 " fill-opacity="1" fill-rule="nonzero"/></g><g clip-path="url(#a9e482e44f)"><path fill="#06d6a0" d="M 759.585938 19.308594 C 758.289062 24.585938 753.589844 28.273438 748.15625 28.273438 C 742.726562 28.273438 738.027344 24.585938 736.730469 19.308594 C 736.671875 19.074219 736.722656 18.824219 736.875 18.636719 C 737.023438 18.445312 737.25 18.335938 737.492188 18.335938 L 758.824219 18.335938 C 759.0625 18.335938 759.292969 18.445312 759.441406 18.636719 C 759.589844 18.824219 759.644531 19.074219 759.585938 19.308594 Z M 741.363281 9.734375 C 742.546875 9.734375 743.503906 10.695312 743.503906 11.875 C 743.503906 13.058594 742.546875 14.019531 741.363281 14.019531 C 740.179688 14.019531 739.222656 13.058594 739.222656 11.875 C 739.222656 10.695312 740.179688 9.734375 741.363281 9.734375 Z M 754.949219 9.734375 C 756.132812 9.734375 757.09375 10.695312 757.09375 11.875 C 757.09375 13.058594 756.132812 14.019531 754.949219 14.019531 C 753.769531 14.019531 752.808594 13.058594 752.808594 11.875 C 752.808594 10.695312 753.769531 9.734375 754.949219 9.734375 Z M 748.15625 0 C 739.0625 0 731.664062 7.398438 731.664062 16.492188 C 731.664062 25.585938 739.0625 32.984375 748.15625 32.984375 C 757.25 32.984375 764.648438 25.585938 764.648438 16.492188 C 764.648438 7.398438 757.25 0 748.15625 0 " fill-opacity="1" fill-rule="nonzero"/></g><path fill="#06d6a0" d="M 748.15625 26.703125 C 752.523438 26.703125 756.34375 23.953125 757.769531 19.90625 L 738.542969 19.90625 C 739.972656 23.953125 743.792969 26.703125 748.15625 26.703125 " fill-opacity="1" fill-rule="nonzero"/><g clip-path="url(#bacfbc6656)"><path fill="#118ab2" d="M 645.957031 30.933594 C 644.777344 30.933594 643.816406 29.972656 643.816406 28.789062 C 643.816406 27.609375 644.777344 26.648438 645.957031 26.648438 C 647.140625 26.648438 648.101562 27.609375 648.101562 28.789062 C 648.101562 29.972656 647.140625 30.933594 645.957031 30.933594 Z M 646.777344 40.800781 C 646.621094 40.988281 646.398438 41.085938 646.171875 41.085938 C 645.996094 41.085938 645.820312 41.023438 645.671875 40.902344 C 643.851562 39.386719 641.539062 38.550781 639.164062 38.550781 C 636.792969 38.550781 634.480469 39.386719 632.660156 40.902344 C 632.324219 41.179688 631.832031 41.136719 631.554688 40.800781 C 631.277344 40.46875 631.320312 39.972656 631.65625 39.695312 C 633.757812 37.945312 636.425781 36.980469 639.164062 36.980469 C 641.90625 36.980469 644.574219 37.945312 646.675781 39.695312 C 647.007812 39.972656 647.054688 40.46875 646.777344 40.800781 Z M 632.371094 31.738281 C 632.371094 31.738281 633.777344 33.894531 633.777344 34.671875 C 633.777344 35.445312 633.148438 36.074219 632.371094 36.074219 C 631.597656 36.074219 630.96875 35.445312 630.96875 34.671875 C 630.96875 33.894531 632.371094 31.738281 632.371094 31.738281 Z M 630.230469 28.789062 C 630.230469 27.609375 631.191406 26.648438 632.371094 26.648438 C 633.554688 26.648438 634.515625 27.609375 634.515625 28.789062 C 634.515625 29.972656 633.554688 30.933594 632.371094 30.933594 C 631.191406 30.933594 630.230469 29.972656 630.230469 28.789062 Z M 639.164062 16.914062 C 630.070312 16.914062 622.671875 24.3125 622.671875 33.40625 C 622.671875 42.5 630.070312 49.898438 639.164062 49.898438 C 648.261719 49.898438 655.660156 42.5 655.660156 33.40625 C 655.660156 24.3125 648.261719 16.914062 639.164062 16.914062 " fill-opacity="1" fill-rule="nonzero"/></g></svg>